<?xml version="1.0" encoding="utf-8"?>
<!-- Generator: Adobe Illustrator 16.0.0, SVG Export Plug-In . SVG Version: 6.00 Build 0)  -->
<!DOCTYPE svg PUBLIC "-//W3C//DTD SVG 1.1//EN" "http://www.w3.org/Graphics/SVG/1.1/DTD/svg11.dtd">
<svg version="1.1" id="Capa_1" xmlns="http://www.w3.org/2000/svg" xmlns:xlink="http://www.w3.org/1999/xlink" x="0px" y="0px"
	 width="80px" height="80px" viewBox="0 0 80 80" enable-background="new 0 0 80 80" xml:space="preserve">
<g>
	
		<radialGradient id="SVGID_1_" cx="308.0576" cy="-438.353" r="36.0515" gradientTransform="matrix(1 0 0 -1 -266 -514)" gradientUnits="userSpaceOnUse">
		<stop  offset="0" style="stop-color:#FAAF40"/>
		<stop  offset="0.0432" style="stop-color:#F9A538"/>
		<stop  offset="0.1116" style="stop-color:#F89D31"/>
		<stop  offset="0.2269" style="stop-color:#F89A2F"/>
		<stop  offset="0.5276" style="stop-color:#F7922D"/>
		<stop  offset="1" style="stop-color:#F37B28"/>
	</radialGradient>
	<path fill="url(#SVGID_1_)" d="M19.89-70.65v-6.66c0-1.4-0.58-2.1-1.72-2.1c-1.14,0-1.72,0.7-1.72,2.1v6.66h-3.42v-6.66
		c0-1.4-0.55-2.1-1.69-2.1s-1.72,0.7-1.72,2.1v6.66H6.21v-7.04c0-1.46,0.5-2.54,1.52-3.3c0.88-0.67,2.11-0.99,3.6-0.99
		c1.55,0,2.66,0.38,3.39,1.17c0.61-0.79,1.75-1.17,3.42-1.17c1.52,0,2.72,0.32,3.6,0.99c1.02,0.76,1.52,1.84,1.52,3.3v7.07h-3.36
		V-70.65z"/>
	
		<radialGradient id="SVGID_2_" cx="308.0586" cy="-438.353" r="36.0531" gradientTransform="matrix(1 0 0 -1 -266 -514)" gradientUnits="userSpaceOnUse">
		<stop  offset="0" style="stop-color:#FAAF40"/>
		<stop  offset="0.0432" style="stop-color:#F9A538"/>
		<stop  offset="0.1116" style="stop-color:#F89D31"/>
		<stop  offset="0.2269" style="stop-color:#F89A2F"/>
		<stop  offset="0.5276" style="stop-color:#F7922D"/>
		<stop  offset="1" style="stop-color:#F37B28"/>
	</radialGradient>
	<path fill="url(#SVGID_2_)" d="M29.71-70.35c-1.72,0-3.13-0.56-4.27-1.64c-1.11-1.08-1.7-2.49-1.7-4.21c0-1.72,0.55-3.13,1.7-4.21
		c1.11-1.08,2.54-1.64,4.27-1.64s3.16,0.56,4.27,1.64c1.14,1.08,1.7,2.49,1.7,4.21c0,1.72-0.56,3.13-1.7,4.21
		C32.84-70.91,31.41-70.35,29.71-70.35z M29.71-79.33c-0.82,0-1.46,0.32-1.9,0.94c-0.44,0.61-0.67,1.34-0.67,2.22
		c0,0.85,0.2,1.58,0.61,2.16c0.47,0.67,1.11,0.99,1.93,0.99s1.46-0.32,1.93-0.99c0.44-0.58,0.64-1.31,0.64-2.16
		c0-0.85-0.21-1.58-0.61-2.16C31.2-79.01,30.53-79.33,29.71-79.33z"/>
	
		<radialGradient id="SVGID_3_" cx="308.0596" cy="-438.353" r="36.0519" gradientTransform="matrix(1 0 0 -1 -266 -514)" gradientUnits="userSpaceOnUse">
		<stop  offset="0" style="stop-color:#FAAF40"/>
		<stop  offset="0.0432" style="stop-color:#F9A538"/>
		<stop  offset="0.1116" style="stop-color:#F89D31"/>
		<stop  offset="0.2269" style="stop-color:#F89A2F"/>
		<stop  offset="0.5276" style="stop-color:#F7922D"/>
		<stop  offset="1" style="stop-color:#F37B28"/>
	</radialGradient>
	<path fill="url(#SVGID_3_)" d="M41.99-70.35c-1.72,0-3.13-0.56-4.27-1.64c-1.11-1.08-1.7-2.49-1.7-4.21c0-1.72,0.56-3.13,1.7-4.21
		c1.11-1.08,2.54-1.64,4.27-1.64c1.73,0,3.16,0.56,4.27,1.64c1.14,1.08,1.7,2.49,1.7,4.21c0,1.72-0.56,3.13-1.7,4.21
		C45.12-70.91,43.68-70.35,41.99-70.35z M41.99-79.33c-0.82,0-1.46,0.32-1.9,0.94c-0.44,0.61-0.67,1.34-0.67,2.22
		c0,0.85,0.2,1.58,0.61,2.16c0.47,0.67,1.11,0.99,1.93,0.99s1.46-0.32,1.93-0.99c0.44-0.58,0.64-1.31,0.64-2.16
		c0-0.85-0.21-1.58-0.61-2.16C43.48-79.01,42.81-79.33,41.99-79.33z"/>
	
		<radialGradient id="SVGID_4_" cx="308.0586" cy="-438.353" r="36.0529" gradientTransform="matrix(1 0 0 -1 -266 -514)" gradientUnits="userSpaceOnUse">
		<stop  offset="0" style="stop-color:#FAAF40"/>
		<stop  offset="0.0432" style="stop-color:#F9A538"/>
		<stop  offset="0.1116" style="stop-color:#F89D31"/>
		<stop  offset="0.2269" style="stop-color:#F89A2F"/>
		<stop  offset="0.5276" style="stop-color:#F7922D"/>
		<stop  offset="1" style="stop-color:#F37B28"/>
	</radialGradient>
	<path fill="url(#SVGID_4_)" d="M57.13-70.68v-1.11c-0.29,0.41-0.82,0.73-1.55,0.96c-0.64,0.23-1.26,0.32-1.84,0.32
		c-1.61,0-2.92-0.55-3.89-1.67c-0.99-1.11-1.46-2.48-1.46-4.12c0-1.61,0.47-2.98,1.43-4.06c0.96-1.08,2.25-1.64,3.83-1.64
		c1.81,0,2.95,0.5,3.48,1.46v-9.18h3.3v19.03H57.13z M57.13-76.99c0-0.61-0.29-1.2-0.88-1.75c-0.58-0.55-1.17-0.85-1.78-0.85
		c-0.88,0-1.55,0.35-2.08,1.05c-0.44,0.62-0.67,1.4-0.67,2.31c0,0.88,0.23,1.64,0.67,2.28c0.5,0.73,1.2,1.08,2.08,1.08
		c0.53,0,1.08-0.23,1.72-0.73c0.61-0.5,0.94-0.99,0.94-1.52V-76.99L57.13-76.99z"/>
	
		<radialGradient id="SVGID_5_" cx="308.0596" cy="-438.353" r="36.0511" gradientTransform="matrix(1 0 0 -1 -266 -514)" gradientUnits="userSpaceOnUse">
		<stop  offset="0" style="stop-color:#FAAF40"/>
		<stop  offset="0.0432" style="stop-color:#F9A538"/>
		<stop  offset="0.1116" style="stop-color:#F89D31"/>
		<stop  offset="0.2269" style="stop-color:#F89A2F"/>
		<stop  offset="0.5276" style="stop-color:#F7922D"/>
		<stop  offset="1" style="stop-color:#F37B28"/>
	</radialGradient>
	<path fill="url(#SVGID_5_)" d="M61.63-70.68v-19.03h3.39v19.03H61.63z"/>
	
		<radialGradient id="SVGID_6_" cx="308.0566" cy="-438.3535" r="36.0539" gradientTransform="matrix(1 0 0 -1 -266 -514)" gradientUnits="userSpaceOnUse">
		<stop  offset="0" style="stop-color:#FAAF40"/>
		<stop  offset="0.0432" style="stop-color:#F9A538"/>
		<stop  offset="0.1116" style="stop-color:#F89D31"/>
		<stop  offset="0.2269" style="stop-color:#F89A2F"/>
		<stop  offset="0.5276" style="stop-color:#F7922D"/>
		<stop  offset="1" style="stop-color:#F37B28"/>
	</radialGradient>
	<path fill="url(#SVGID_6_)" d="M69.08-75.18c0.15,0.7,0.5,1.29,1.02,1.78c0.55,0.5,1.14,0.76,1.81,0.76c0.47,0,0.96-0.12,1.52-0.35
		c0.67-0.29,0.99-0.61,0.99-0.99L78-74.01c-0.5,1.2-1.37,2.13-2.57,2.78c-1.14,0.61-2.37,0.94-3.74,0.94
		c-1.72,0-3.19-0.56-4.33-1.61c-1.14-1.08-1.72-2.49-1.72-4.24c0-1.81,0.58-3.22,1.72-4.3c1.14-1.05,2.63-1.58,4.44-1.58
		c1.99,0,3.54,0.64,4.65,1.96c1.02,1.2,1.55,2.84,1.55,4.88H69.08L69.08-75.18z M74.64-77.28c-0.15-0.73-0.44-1.32-0.91-1.78
		c-0.53-0.5-1.14-0.76-1.81-0.76c-0.7,0-1.29,0.23-1.78,0.73c-0.47,0.5-0.79,1.08-0.96,1.81H74.64z"/>
	<path fill="#58595B" d="M6.53-80.29c-0.12,0.58-0.23,1.17-0.35,1.75c3.21,1.08,6.25,0.03,7.86-2.78
		C11.68-82.95,9.48-81.29,6.53-80.29"/>
	
		<linearGradient id="SVGID_7_" gradientUnits="userSpaceOnUse" x1="272.209" y1="-433.6084" x2="279.8849" y2="-433.6084" gradientTransform="matrix(1 0 0 -1 -266 -514)">
		<stop  offset="0" style="stop-color:#929497"/>
		<stop  offset="0.1245" style="stop-color:#757578"/>
		<stop  offset="0.2792" style="stop-color:#575658"/>
		<stop  offset="0.4403" style="stop-color:#403E3F"/>
		<stop  offset="0.6085" style="stop-color:#302D2E"/>
		<stop  offset="0.7884" style="stop-color:#262223"/>
		<stop  offset="1" style="stop-color:#231F20"/>
	</linearGradient>
	<path fill="url(#SVGID_7_)" d="M6.53-80.73c-0.12,0.67-0.21,1.32-0.32,1.99c3.07,1.05,6.08,0.15,7.69-2.6
		C11.85-83.71,9.57-81.75,6.53-80.73"/>
	
		<linearGradient id="SVGID_8_" gradientUnits="userSpaceOnUse" x1="273.6807" y1="-431.0474" x2="276.8677" y2="-435.5989" gradientTransform="matrix(1 0 0 -1 -266 -514)">
		<stop  offset="0" style="stop-color:#231F20"/>
		<stop  offset="1" style="stop-color:#231F20;stop-opacity:0"/>
	</linearGradient>
	<path fill="url(#SVGID_8_)" d="M10.18-79.94c-1.4-0.29-2.92,0.44-3.98,1.2c-0.67-4.91,2.37-4.79,6.34-3.57
		c-0.26,1.2-0.7,2.81-1.46,3.77C11.06-79.18,10.77-79.62,10.18-79.94"/>
	
		<linearGradient id="SVGID_9_" gradientUnits="userSpaceOnUse" x1="268" y1="-431.1758" x2="282.0312" y2="-431.1758" gradientTransform="matrix(1 0 0 -1 -266 -514)">
		<stop  offset="0" style="stop-color:#929497"/>
		<stop  offset="0.1245" style="stop-color:#757578"/>
		<stop  offset="0.2792" style="stop-color:#575658"/>
		<stop  offset="0.4403" style="stop-color:#403E3F"/>
		<stop  offset="0.6085" style="stop-color:#302D2E"/>
		<stop  offset="0.7884" style="stop-color:#262223"/>
		<stop  offset="1" style="stop-color:#231F20"/>
	</linearGradient>
	<path fill="url(#SVGID_9_)" d="M2-80.73c5.14-3.1,8.04-3.68,14.03-4.3C9.07-79.53,8.9-80.73,2-80.73"/>
	<line fill="none" stroke="#4A4A4C" stroke-width="0.5" x1="16.03" y1="-85" x2="10.51" y2="-80.99"/>
	<path opacity="0.23" fill="#231F20" enable-background="new    " d="M9.45-82.86C9.51-82.22,9.37-83.48,9.45-82.86"/>
	<line fill="none" stroke="#A8ABAD" stroke-width="0.5" x1="2" y1="-80.73" x2="10.51" y2="-80.99"/>
	<path fill="none" stroke="#F16922" stroke-width="0.5" d="M8.93-82.81c-1.46,0.41-6.25,1.46-6.31,2.08
		c-0.15,1.14-0.03,2.95-0.03,2.95"/>
	<path fill="#F16922" d="M3.02-73.42c-0.53-1.31-1.17-2.78-0.41-4.59C3.11-76.32,3.02-75.03,3.02-73.42"/>
	
		<ellipse transform="matrix(-0.3374 -0.9414 0.9414 -0.3374 89.7031 -102.6507)" fill="#6D6E70" cx="8.72" cy="-82.9" rx="0.12" ry="0.23"/>
</g>
<g>
	<path fill="#F37B28" d="M56.51,60.26V41.45c0-3.96-1.65-5.94-4.87-5.94c-3.22,0-4.87,1.98-4.87,5.94v18.82h-9.66V41.45
		c0-3.96-1.57-5.94-4.78-5.94s-4.87,1.98-4.87,5.94v18.82h-9.57V40.37c0-4.13,1.4-7.18,4.29-9.33c2.48-1.9,5.94-2.81,10.15-2.81
		c4.37,0,7.51,1.08,9.57,3.3c1.73-2.22,4.95-3.3,9.65-3.3c4.3,0,7.68,0.91,10.15,2.81c2.89,2.15,4.29,5.2,4.29,9.33v19.97h-9.49
		V60.26z"/>
	<path fill="#58595B" d="M18.79,33.03c-0.33,1.65-0.66,3.3-0.99,4.95c9.08,3.06,17.66,0.08,22.2-7.84
		C33.32,25.51,27.13,30.22,18.79,33.03"/>
	
		<linearGradient id="SVGID_10_" gradientUnits="userSpaceOnUse" x1="283.8848" y1="-546.7461" x2="305.5572" y2="-546.7461" gradientTransform="matrix(1 0 0 -1 -266 -514)">
		<stop  offset="0" style="stop-color:#929497"/>
		<stop  offset="0.1245" style="stop-color:#757578"/>
		<stop  offset="0.2792" style="stop-color:#575658"/>
		<stop  offset="0.4403" style="stop-color:#403E3F"/>
		<stop  offset="0.6085" style="stop-color:#302D2E"/>
		<stop  offset="0.7884" style="stop-color:#262223"/>
		<stop  offset="1" style="stop-color:#231F20"/>
	</linearGradient>
	<path fill="url(#SVGID_10_)" d="M18.79,31.79c-0.33,1.9-0.58,3.71-0.91,5.61c8.67,2.97,17.17,0.42,21.71-7.34
		C33.81,23.37,27.38,28.9,18.79,31.79"/>
	
		<linearGradient id="SVGID_11_" gradientUnits="userSpaceOnUse" x1="288.042" y1="-539.5146" x2="297.04" y2="-552.3652" gradientTransform="matrix(1 0 0 -1 -266 -514)">
		<stop  offset="0" style="stop-color:#231F20"/>
		<stop  offset="1" style="stop-color:#231F20;stop-opacity:0"/>
	</linearGradient>
	<path fill="url(#SVGID_11_)" d="M29.11,34.02c-3.96-0.82-8.25,1.24-11.23,3.38c-1.9-13.86,6.69-13.53,17.91-10.07
		c-0.74,3.38-1.98,7.92-4.13,10.64C31.58,36.16,30.76,34.93,29.11,34.02"/>
	
		<linearGradient id="SVGID_12_" gradientUnits="userSpaceOnUse" x1="272" y1="-539.8779" x2="311.6172" y2="-539.8779" gradientTransform="matrix(1 0 0 -1 -266 -514)">
		<stop  offset="0" style="stop-color:#929497"/>
		<stop  offset="0.1245" style="stop-color:#757578"/>
		<stop  offset="0.2792" style="stop-color:#575658"/>
		<stop  offset="0.4403" style="stop-color:#403E3F"/>
		<stop  offset="0.6085" style="stop-color:#302D2E"/>
		<stop  offset="0.7884" style="stop-color:#262223"/>
		<stop  offset="1" style="stop-color:#231F20"/>
	</linearGradient>
	<path fill="url(#SVGID_12_)" d="M6,31.79c14.53-8.75,22.7-10.4,39.62-12.13C25.97,35.17,25.48,31.79,6,31.79"/>
	<line fill="none" stroke="#4A4A4C" stroke-width="0.5" x1="45.62" y1="19.74" x2="30.02" y2="31.04"/>
	<path opacity="0.23" fill="#231F20" enable-background="new    " d="M27.05,25.77C27.21,27.58,26.8,24.03,27.05,25.77"/>
	<line fill="none" stroke="#A8ABAD" stroke-width="0.5" x1="6" y1="31.79" x2="30.02" y2="31.04"/>
	<path fill="none" stroke="#F16922" stroke-width="0.5" d="M25.56,25.93c-4.12,1.16-17.66,4.13-17.82,5.86
		c-0.41,3.22-0.08,8.33-0.08,8.33"/>
	<path fill="#F16922" d="M8.89,52.42c-1.49-3.71-3.3-7.84-1.16-12.95C9.14,44.25,8.89,47.88,8.89,52.42"/>
</g>
<g>
	<path fill="#9B5C8F" d="M115.57-97.5h48.84c3.09,0,5.59,2.45,5.59,5.48v18.27c0,3.03-2.5,5.48-5.59,5.48h-17.51l2.4,5.77
		l-10.57-5.77h-23.13c-3.09,0-5.59-2.45-5.59-5.48v-18.27C109.98-95.02,112.48-97.5,115.57-97.5z"/>
	<path fill="#FFFFFF" d="M113.42-92.5c0.34-0.46,0.85-0.69,1.54-0.74c1.24-0.1,1.95,0.48,2.12,1.72c0.76,5,1.58,9.23,2.46,12.69
		l5.34-9.97c0.49-0.91,1.1-1.39,1.83-1.43c1.07-0.07,1.73,0.6,2,2.01c0.61,3.18,1.39,5.88,2.32,8.17
		c0.63-6.07,1.71-10.45,3.22-13.15c0.37-0.67,0.9-1,1.61-1.05c0.56-0.05,1.07,0.12,1.54,0.48c0.46,0.36,0.71,0.81,0.76,1.36
		c0.02,0.43-0.05,0.79-0.24,1.15c-0.95,1.72-1.73,4.61-2.37,8.63c-0.61,3.9-0.83,6.93-0.68,9.11c0.05,0.6-0.05,1.12-0.29,1.58
		c-0.29,0.53-0.73,0.81-1.29,0.86c-0.63,0.05-1.29-0.24-1.93-0.88c-2.27-2.27-4.07-5.66-5.39-10.18c-1.58,3.06-2.76,5.35-3.51,6.88
		c-1.44,2.7-2.66,4.09-3.68,4.16c-0.66,0.05-1.22-0.5-1.71-1.65c-1.24-3.13-2.58-9.18-4.02-18.14
		C112.93-91.52,113.08-92.07,113.42-92.5L113.42-92.5z M165.83-88.75c-0.88-1.51-2.17-2.41-3.9-2.77c-0.46-0.1-0.9-0.14-1.32-0.14
		c-2.34,0-4.24,1.2-5.73,3.59c-1.27,2.03-1.9,4.28-1.9,6.74c0,1.84,0.39,3.42,1.17,4.73c0.88,1.51,2.17,2.41,3.9,2.77
		c0.46,0.1,0.9,0.14,1.32,0.14c2.37,0,4.27-1.19,5.73-3.58c1.27-2.05,1.9-4.3,1.9-6.76C167.03-85.91,166.61-87.46,165.83-88.75
		L165.83-88.75z M162.76-82.13c-0.34,1.58-0.95,2.75-1.85,3.54c-0.71,0.62-1.37,0.88-1.98,0.76c-0.58-0.12-1.07-0.62-1.44-1.55
		c-0.29-0.74-0.44-1.48-0.44-2.17c0-0.6,0.05-1.2,0.17-1.75c0.22-0.98,0.63-1.94,1.29-2.84c0.8-1.17,1.66-1.65,2.54-1.48
		c0.58,0.12,1.07,0.62,1.44,1.55c0.29,0.74,0.44,1.48,0.44,2.17C162.93-83.28,162.88-82.68,162.76-82.13L162.76-82.13z
		 M150.56-88.75c-0.88-1.51-2.2-2.41-3.9-2.77c-0.46-0.1-0.9-0.14-1.32-0.14c-2.34,0-4.24,1.2-5.73,3.59
		c-1.27,2.03-1.9,4.28-1.9,6.74c0,1.84,0.39,3.42,1.17,4.73c0.88,1.51,2.17,2.41,3.9,2.77c0.46,0.1,0.9,0.14,1.32,0.14
		c2.37,0,4.27-1.19,5.73-3.58c1.27-2.05,1.9-4.3,1.9-6.76C151.73-85.91,151.34-87.46,150.56-88.75L150.56-88.75z M147.46-82.13
		c-0.34,1.58-0.95,2.75-1.85,3.54c-0.71,0.62-1.37,0.88-1.98,0.76c-0.58-0.12-1.07-0.62-1.44-1.55c-0.29-0.74-0.44-1.48-0.44-2.17
		c0-0.6,0.05-1.2,0.17-1.75c0.22-0.98,0.63-1.94,1.29-2.84c0.8-1.17,1.66-1.65,2.54-1.48c0.59,0.12,1.07,0.62,1.44,1.55
		c0.29,0.74,0.44,1.48,0.44,2.17C147.66-83.28,147.59-82.68,147.46-82.13L147.46-82.13z"/>
</g>
<g>
	<path fill="#9B5C8F" d="M115.57,22.5h48.84c3.09,0,5.59,2.45,5.59,5.48v18.27c0,3.03-2.5,5.48-5.59,5.48h-17.51l2.4,5.77
		l-10.57-5.77h-23.13c-3.09,0-5.59-2.45-5.59-5.48V27.98C109.98,24.98,112.48,22.5,115.57,22.5z"/>
	<path fill="#FFFFFF" d="M113.42,27.5c0.34-0.46,0.85-0.69,1.54-0.74c1.24-0.1,1.95,0.48,2.12,1.72c0.76,5,1.58,9.23,2.46,12.69
		l5.34-9.97c0.49-0.91,1.1-1.39,1.83-1.43c1.07-0.07,1.73,0.6,2,2.01c0.61,3.18,1.39,5.88,2.32,8.17
		c0.63-6.07,1.71-10.45,3.22-13.15c0.37-0.67,0.9-1,1.61-1.05c0.56-0.05,1.07,0.12,1.54,0.48c0.46,0.36,0.71,0.81,0.76,1.36
		c0.02,0.43-0.05,0.79-0.24,1.15c-0.95,1.72-1.73,4.61-2.37,8.63c-0.61,3.9-0.83,6.93-0.68,9.11c0.05,0.6-0.05,1.12-0.29,1.58
		c-0.29,0.53-0.73,0.81-1.29,0.86c-0.63,0.05-1.29-0.24-1.93-0.88c-2.27-2.27-4.07-5.66-5.39-10.18c-1.58,3.06-2.76,5.35-3.51,6.88
		c-1.44,2.7-2.66,4.09-3.68,4.16c-0.66,0.05-1.22-0.5-1.71-1.65c-1.24-3.13-2.58-9.18-4.02-18.14
		C112.93,28.48,113.08,27.93,113.42,27.5L113.42,27.5z M165.83,31.25c-0.88-1.51-2.17-2.41-3.9-2.77c-0.46-0.1-0.9-0.14-1.32-0.14
		c-2.34,0-4.24,1.2-5.73,3.59c-1.27,2.03-1.9,4.28-1.9,6.74c0,1.84,0.39,3.42,1.17,4.73c0.88,1.51,2.17,2.41,3.9,2.77
		c0.46,0.1,0.9,0.14,1.32,0.14c2.37,0,4.27-1.19,5.73-3.58c1.27-2.05,1.9-4.3,1.9-6.76C167.03,34.09,166.61,32.54,165.83,31.25
		L165.83,31.25z M162.76,37.87c-0.34,1.58-0.95,2.75-1.85,3.54c-0.71,0.62-1.37,0.88-1.98,0.76c-0.58-0.12-1.07-0.62-1.44-1.55
		c-0.29-0.74-0.44-1.48-0.44-2.17c0-0.6,0.05-1.2,0.17-1.75c0.22-0.98,0.63-1.94,1.29-2.84c0.8-1.17,1.66-1.65,2.54-1.48
		c0.58,0.12,1.07,0.62,1.44,1.55c0.29,0.74,0.44,1.48,0.44,2.17C162.93,36.72,162.88,37.32,162.76,37.87L162.76,37.87z
		 M150.56,31.25c-0.88-1.51-2.2-2.41-3.9-2.77c-0.46-0.1-0.9-0.14-1.32-0.14c-2.34,0-4.24,1.2-5.73,3.59
		c-1.27,2.03-1.9,4.28-1.9,6.74c0,1.84,0.39,3.42,1.17,4.73c0.88,1.51,2.17,2.41,3.9,2.77c0.46,0.1,0.9,0.14,1.32,0.14
		c2.37,0,4.27-1.19,5.73-3.58c1.27-2.05,1.9-4.3,1.9-6.76C151.73,34.09,151.34,32.54,150.56,31.25L150.56,31.25z M147.46,37.87
		c-0.34,1.58-0.95,2.75-1.85,3.54c-0.71,0.62-1.37,0.88-1.98,0.76c-0.58-0.12-1.07-0.62-1.44-1.55c-0.29-0.74-0.44-1.48-0.44-2.17
		c0-0.6,0.05-1.2,0.17-1.75c0.22-0.98,0.63-1.94,1.29-2.84c0.8-1.17,1.66-1.65,2.54-1.48c0.59,0.12,1.07,0.62,1.44,1.55
		c0.29,0.74,0.44,1.48,0.44,2.17C147.66,36.72,147.59,37.32,147.46,37.87L147.46,37.87z"/>
</g>
<path fill="#21759B" d="M240-50c-16.62,0-30.12-13.25-30-30s12.75-30,30-30c17.25,0,30,13.5,30,30S256.62-50,240-50z M248.88-54.62
	l-8.5-22.88l-8,23.38C238.25-52.75,242.25-52.38,248.88-54.62L248.88-54.62z M228.13-55.87l-12.75-34.88
	C213.63-87,213.25-83.88,213-80C213.13-69.75,218.88-60.38,228.13-55.87z M266.88-80c0.12-6.62-2.87-11.88-3.12-12.62
	c0.25,5.12-0.5,7.75-1.38,10.62l-8.75,25.13c11-6.63,13.12-16.5,13.37-23.13H266.88z M239.13-81.12l-4.25-11.62L231.75-93
	c-1.25-0.88-0.5-2.25,0.38-2.25c5.62,0.38,8.75,0.38,14.38,0c1.38,0,1.75,2,0.12,2.25l-3,0.25L253.37-64L258-79.75
	c0.25-6.87-1.63-7.62-4.12-12.62c-2-3.88,0.12-7.62,4-7.75c-3.13-3-9.5-6.75-17.88-6.88c-8.38-0.12-17.25,4.13-22.5,12.13l9.25-0.25
	c1.12,0.5,0.62,2.12,0,2.25l-3.25,0.25l9.75,29.25L239.13-81.12L239.13-81.12z"/>
<path fill="#FFFFFF" d="M240,70c-16.62,0-30.12-13.25-30-30s12.75-30,30-30c17.25,0,30,13.5,30,30S256.62,70,240,70z M248.88,65.38
	l-8.5-22.88l-8,23.38C238.25,67.25,242.25,67.62,248.88,65.38L248.88,65.38z M228.13,64.13l-12.75-34.88
	C213.63,33,213.25,36.12,213,40C213.13,50.25,218.88,59.62,228.13,64.13z M266.88,40c0.12-6.62-2.87-11.88-3.12-12.62
	c0.25,5.12-0.5,7.75-1.38,10.62l-8.75,25.13c11-6.63,13.12-16.5,13.37-23.13H266.88z M239.13,38.88l-4.25-11.62L231.75,27
	c-1.25-0.88-0.5-2.25,0.38-2.25c5.62,0.38,8.75,0.38,14.38,0c1.38,0,1.75,2,0.12,2.25l-3,0.25L253.37,56L258,40.25
	c0.25-6.87-1.63-7.62-4.12-12.62c-2-3.88,0.12-7.62,4-7.75c-3.13-3-9.5-6.75-17.88-6.88c-8.38-0.12-17.25,4.13-22.5,12.13l9.25-0.25
	c1.12,0.5,0.62,2.12,0,2.25l-3.25,0.25l9.75,29.25L239.13,38.88L239.13,38.88z"/>
<g>
	<path fill="#A5DBE8" d="M329.45-63.97c0.48-0.21,0.96-0.41,1.45-0.59c0.55-0.21,1.11-0.4,1.68-0.57c0.7-0.21,1.41-0.4,2.13-0.56
		c0.97-0.21,1.95-0.36,2.94-0.46c-0.56,1.75-1.17,3.48-1.83,5.2c0.03,0.33,0.04,0.67,0.05,1c1.36-0.27,2.74-0.41,4.13-0.41
		c1.41,0,2.79,0.14,4.13,0.41c0.01-0.34,0.03-0.67,0.05-1c-0.66-1.71-1.27-3.45-1.83-5.2c0.99,0.1,1.97,0.25,2.94,0.46
		c0.72,0.15,1.43,0.34,2.13,0.56c0.57,0.17,1.12,0.37,1.68,0.57c0.49,0.18,0.98,0.38,1.46,0.59c3.46,1.54,6.55,3.82,9.04,6.67
		C365.96-62.79,370-70.92,370-80c0-16.57-13.43-30-30-30s-30,13.43-30,30c0,9.08,4.04,17.21,10.41,22.71
		C322.9-60.15,325.99-62.42,329.45-63.97"/>
	<path fill="#525353" d="M350.55-63.96l1.86,6.4l0.53,0.02c0.34,0,0.58,0.09,0.58,0.43c0,0.57,0.03,1.21,0.08,1.77
		c0.46,0.4,1.03,0.84,1.46,1.27c1.6-0.93,3.12-2.01,4.52-3.23C357.1-60.15,354.02-62.42,350.55-63.96 M346.91-64.03l2.19-0.53
		c-0.55-0.21-1.11-0.4-1.68-0.57c-0.7-0.21-1.41-0.4-2.13-0.56c-0.97-0.21-1.95-0.36-2.94-0.46c0.56,1.75,1.17,3.48,1.83,5.2
		c-0.03,0.33-0.04,0.67-0.05,1c1.55,0.31,3.07,0.84,4.48,1.46L346.91-64.03"/>
	<path d="M324.93-54.06c0.35,0.2,0.7,0.4,1.06,0.59c0.12-0.6,0.33-1.43,0.39-2.05C325.91-55.13,325.36-54.5,324.93-54.06
		 M348.58-58.54c-1.42-0.63-2.92-1.1-4.45-1.4c-1.36-0.27-2.74-0.41-4.13-0.41c-1.41,0-2.79,0.14-4.13,0.41
		c-1.55,0.3-3.17,0.77-4.57,1.39l-0.15,0.93h17.71L348.58-58.54"/>
	<path fill="#525353" d="M326.32-55.35c0.05-0.56,0.09-1.06,0.09-1.63c0-0.34,0.24-0.56,0.58-0.56l0.56-0.02l1.89-6.41
		c-3.46,1.54-6.55,3.82-9.04,6.67c1.4,1.21,2.92,2.29,4.52,3.23c0.43-0.43,0.88-0.85,1.34-1.24"/>
	<path d="M353.84-54.21c0.12,0.61,0.15,0.73,0.17,0.73c0.36-0.19,0.71-0.39,1.06-0.59c-0.43-0.44-0.88-0.85-1.35-1.25L353.84-54.21"
		/>
	<path fill="#AA9678" d="M348.58-58.54l0.28,0.92h3.62l-1.92-6.35c-0.48-0.21-0.96-0.41-1.46-0.59l-2.19,0.53L348.58-58.54"/>
	<path fill="#C4B6A1" d="M327.59-56.33c0.02-0.01,0.04-0.03,0.06-0.04h-0.05C327.59-56.36,327.59-56.35,327.59-56.33"/>
	<path fill="#AA9678" d="M352.41-56.38h-0.05l0.06,0.04C352.41-56.35,352.41-56.36,352.41-56.38"/>
	<path fill="#AA9678" d="M352.35-56.47l-12.37,0.01L340-50c4.61,0,8.97-1.04,12.87-2.89c-0.25-1.12-0.28-2.32-0.32-3.5
		C352.53-56.4,352.35-56.47,352.35-56.47"/>
	<path fill="#C4B6A1" d="M339.98-56.43c0,0-12.44-0.02-12.46,0c-0.04,1.17-0.28,2.56-0.39,3.54c3.9,1.85,8.26,2.89,12.87,2.89
		l0.01-6.41L339.98-56.43"/>
	<path fill="#786453" d="M340-57L340-57v0.62l0,0V-57z"/>
	<path fill="#525353" d="M348.59-61.9"/>
	<path fill="#AA9678" d="M349.28-61.21l0.01,0.02L349.28-61.21c0,0-0.3-0.24-0.69-0.68C348.98-61.45,349.28-61.21,349.28-61.21"/>
	<path fill="#FFFFFF" d="M358.45-88.36L358.45-88.36L358.45-88.36 M359.65-79.72L359.65-79.72L359.65-79.72"/>
	<path fill="#BBBCBD" d="M359.65-79.73L359.65-79.73L359.65-79.73"/>
	<path fill="#676A6A" d="M359.62-80.19c0,0.01,0,0.01,0,0.02c0,0.01,0,0.01,0,0.01v0c0.01,0.12,0.02,0.23,0.02,0.36
		c0,0.02,0,0.04,0,0.07l0,0.01l0,0.01c0,0.02,0,0.05,0,0.07c0,0.12-0.01,0.23-0.02,0.35v0l0,0.02c0,0.01,0,0.02,0,0.03
		c-0.02,0.12-0.04,0.24-0.07,0.36v0l0,0l0-0.01l0,0l0,0l0.79-0.82l-0.79-0.83v0C359.58-80.44,359.6-80.32,359.62-80.19"/>
	<path d="M359.62-79.26c0-0.01,0.01-0.03,0.01-0.04c0.01-0.11,0.02-0.23,0.02-0.35c0-0.03,0-0.05,0-0.08s0-0.05,0-0.07
		c0-0.12-0.01-0.24-0.02-0.36c0-0.01,0-0.03-0.01-0.04c-0.02-0.12-0.04-0.24-0.07-0.36c-0.01-0.04-0.02-0.08-0.04-0.12
		c-0.07-0.23-0.17-0.44-0.28-0.62c-0.04-0.06-0.09-0.13-0.14-0.19c-0.05-0.05-0.1-0.1-0.16-0.14c-0.02-0.02-0.04-0.03-0.06-0.04
		c-0.06-0.04-0.13-0.08-0.21-0.1c-0.07-0.02-0.14-0.04-0.22-0.04c-0.07,0-0.14,0.02-0.21,0.04c-0.07,0.03-0.14,0.06-0.21,0.1
		c-0.02,0.01-0.04,0.02-0.06,0.04c-0.1,0.08-0.18,0.17-0.25,0.27c-0.02,0.02-0.03,0.04-0.05,0.07c-0.11,0.17-0.21,0.38-0.28,0.62
		l-0.01,0.03c-0.03,0.11-0.06,0.22-0.08,0.34c-0.01,0.04-0.01,0.07-0.02,0.11c-0.02,0.13-0.03,0.27-0.03,0.41c0,0.02,0,0.04,0,0.06
		h0c0,1.14,0.54,2.07,1.21,2.07c0.12,0,0.23-0.03,0.33-0.08c0.06-0.03,0.12-0.07,0.18-0.11c0.02-0.02,0.04-0.04,0.07-0.06
		c0.05-0.05,0.1-0.11,0.15-0.17c0.03-0.04,0.07-0.09,0.1-0.14c0.02-0.03,0.04-0.06,0.05-0.1c0.03-0.06,0.07-0.13,0.09-0.2
		c0.01-0.02,0.02-0.05,0.03-0.07c0.04-0.1,0.07-0.2,0.1-0.3C359.58-79.01,359.6-79.13,359.62-79.26L359.62-79.26z M358.49-80
		c-0.25,0-0.45-0.35-0.45-0.78c0-0.43,0.2-0.78,0.45-0.78c0.25,0,0.45,0.35,0.45,0.78C358.94-80.35,358.74-80,358.49-80z"/>
	<path fill="#FFFFFF" d="M358.49-81.55c-0.25,0-0.45,0.35-0.45,0.78c0,0.43,0.2,0.78,0.45,0.78c0.25,0,0.45-0.35,0.45-0.78
		C358.94-81.21,358.74-81.55,358.49-81.55"/>
	<path fill="#909393" d="M357.38-80.67c0.07-0.23,0.17-0.44,0.28-0.62c0.02-0.02,0.03-0.04,0.05-0.07c0.07-0.1,0.15-0.19,0.25-0.27
		c0.02-0.02,0.04-0.03,0.06-0.04c0.07-0.04,0.13-0.08,0.21-0.1c0.07-0.02,0.14-0.04,0.21-0.04c0.07,0,0.15,0.02,0.22,0.04
		c0.07,0.03,0.14,0.06,0.21,0.1c0.02,0.01,0.04,0.02,0.06,0.04c0.05,0.04,0.1,0.09,0.16,0.14c0.05,0.06,0.1,0.12,0.14,0.19
		c0.11,0.17,0.21,0.38,0.28,0.62l0,0l-1.07-4.89L357.38-80.67L357.38-80.67"/>
	<path d="M344.29-79.77c0-0.1-0.01-0.2-0.02-0.29c0,0,0,0,0,0c-0.01-0.09-0.03-0.19-0.05-0.28l0-0.01
		c-0.02-0.09-0.04-0.18-0.07-0.27l0-0.01c-0.03-0.09-0.06-0.17-0.1-0.25c0,0,0,0,0,0c-0.3-0.66-0.84-1.19-1.51-1.46l-0.01,0
		c-0.16-0.07-0.33-0.12-0.51-0.15c0,0-0.01,0-0.01,0c-0.18-0.04-0.36-0.05-0.54-0.05c-0.18,0-0.36,0.02-0.53,0.05l-0.02,0
		c-0.17,0.03-0.34,0.08-0.5,0.15l-0.01,0c-0.16,0.07-0.31,0.15-0.46,0.24c-0.15,0.09-0.28,0.2-0.41,0.32l0,0.01l-0.01,0
		c-0.2,0.19-0.38,0.41-0.51,0.66l0,0.01c-0.04,0.07-0.08,0.15-0.12,0.23c0,0.01-0.01,0.02-0.01,0.03c-0.03,0.07-0.06,0.15-0.08,0.22
		c-0.01,0.01-0.01,0.03-0.02,0.04c-0.02,0.07-0.04,0.14-0.06,0.22c0,0.02-0.01,0.04-0.02,0.06c-0.01,0.07-0.02,0.15-0.03,0.22
		c0,0.02-0.01,0.04-0.01,0.07c-0.03,0.28-0.02,0.56,0.04,0.84c0,0,0,0.01,0,0.01c0.04,0.18,0.09,0.35,0.15,0.51c0,0,0,0.01,0,0.01
		c0.13,0.33,0.33,0.62,0.58,0.88c0.19,0.2,0.41,0.37,0.66,0.51l0,0c0.08,0.04,0.15,0.08,0.23,0.12c0.01,0,0.01,0.01,0.02,0.01
		c0.07,0.03,0.15,0.06,0.23,0.09c0.01,0,0.03,0.01,0.04,0.01c0.07,0.02,0.15,0.04,0.22,0.06c0.02,0,0.04,0.01,0.06,0.02
		c0.07,0.01,0.15,0.02,0.22,0.03c0.02,0,0.04,0.01,0.07,0.01c0.66,0.07,1.32-0.1,1.87-0.47c0.3-0.2,0.56-0.46,0.76-0.76
		c0.31-0.47,0.48-1.02,0.48-1.58c0-0.01,0-0.01,0-0.02C344.29-79.76,344.29-79.77,344.29-79.77L344.29-79.77z M341.46-80.11
		c-0.59,0-1.06-0.47-1.06-1.06c0-0.59,0.48-1.06,1.06-1.06s1.06,0.48,1.06,1.06S342.05-80.1,341.46-80.11z"/>
	<path fill="#FFFFFF" d="M341.46-82.23c-0.59,0-1.06,0.47-1.06,1.06c0,0.59,0.47,1.06,1.06,1.06c0,0,0,0,0,0
		c0.59,0,1.06-0.47,1.06-1.06C342.53-81.75,342.05-82.23,341.46-82.23"/>
	<path fill="#BBBCBD" d="M339.52-81.78L339.52-81.78l0.01-0.01l1.95-5.95v-1.39v-0.02c-1.1-0.23-2.22-0.34-3.34-0.35
		c-0.38,0-0.76,0.02-1.13,0.04c-0.05,0.01-0.11,0.01-0.16,0.01c-1.95,0.15-3.88,0.66-5.66,1.47c-1.53,0.7-2.95,1.62-4.22,2.71l0,0
		l0,0c-0.34,0.29-0.67,0.6-0.99,0.91c-0.06,0.06-0.12,0.12-0.18,0.18c-0.3,0.3-0.59,0.62-0.88,0.94c-0.06,0.07-0.12,0.14-0.18,0.21
		c-0.29,0.33-0.56,0.68-0.82,1.03c-0.02,0.03-0.04,0.06-0.06,0.09c-0.25,0.34-0.49,0.69-0.72,1.04c-0.04,0.07-0.09,0.14-0.13,0.21
		c-0.19,0.29-0.36,0.6-0.53,0.9h8.87L339.52-81.78"/>
	<path fill="#E3DDDB" d="M347.01-82.45c0.02-0.23,0.03-0.46,0.04-0.7c0.02-0.31,0.03-0.63,0.03-0.94c0-0.25,0-0.49,0-0.73
		c0-0.07,0-0.14,0-0.21c-0.01-0.63-0.03-1.26-0.07-1.89l0,0l0,0c-0.23-0.13-0.47-0.27-0.7-0.4l-0.02-0.01l-0.18-0.1l0,0l-0.13-0.07
		l-0.02-0.01c-0.03-0.02-0.06-0.03-0.09-0.05c-0.41-0.21-0.82-0.41-1.25-0.59c-1.01-0.43-2.37-0.8-3.13-0.98v1.41l1.93,5.96l0,0.01
		c0.2,0.19,0.37,0.41,0.51,0.65l0,0c0.04,0.08,0.09,0.16,0.12,0.24c0,0,0,0,0,0c0.04,0.08,0.07,0.17,0.1,0.25l0,0.01
		c0.03,0.09,0.05,0.18,0.07,0.27l0,0.01c0.02,0.09,0.04,0.19,0.05,0.28c0,0,0,0,0,0c0.01,0.1,0.02,0.19,0.02,0.29l0.01,0.02h2.36
		c0.16-0.87,0.27-1.74,0.34-2.62C347-82.4,347-82.43,347.01-82.45"/>
	<path fill="#FCB03F" d="M350.1-84.56C350.09-84.56,350.09-84.55,350.1-84.56L350.1-84.56"/>
	<path fill="#909393" d="M339.53-81.79c0.13-0.12,0.26-0.23,0.41-0.32c0.15-0.09,0.3-0.17,0.46-0.24c0,0,0.01,0,0.01,0
		c0.16-0.07,0.33-0.12,0.5-0.15l0.02,0c0.18-0.03,0.35-0.05,0.53-0.05c0.18,0,0.37,0.02,0.54,0.05c0,0,0.01,0,0.01,0
		c0.18,0.04,0.35,0.09,0.51,0.16c0.33,0.13,0.62,0.33,0.88,0.57l0-0.01l-1.93-5.96L339.53-81.79"/>
	<path fill="#676A6A" d="M338.85-78.67c-0.07-0.16-0.12-0.33-0.15-0.51c0,0,0-0.01,0-0.01c-0.06-0.28-0.07-0.56-0.04-0.84
		c0-0.02,0.01-0.04,0.01-0.07c0.01-0.07,0.02-0.15,0.03-0.22c0-0.02,0.01-0.04,0.02-0.06c0.02-0.07,0.04-0.15,0.06-0.22
		c0-0.01,0.01-0.03,0.02-0.04c0.03-0.08,0.05-0.15,0.08-0.22c0-0.01,0.01-0.02,0.01-0.03c0.04-0.08,0.07-0.16,0.12-0.23l0-0.01
		c0.14-0.24,0.31-0.46,0.51-0.66l-8.19,2.02h-0.02l8.11,1.98C339.18-78.03,338.99-78.33,338.85-78.67
		C338.85-78.66,338.85-78.66,338.85-78.67"/>
	<path fill="#E3DDDB" d="M357.27-80.2c0-0.04,0.01-0.07,0.02-0.11c0.02-0.12,0.04-0.23,0.08-0.34c0-0.01,0-0.03,0.01-0.04l1.07-4.89
		v-2.79c-0.87-0.72-1.81-1.12-2.78-1.12c-1.23,0-2.38,0.68-3.23,1.52c-0.94,0.92-1.66,2.07-2.25,3.24c-0.03,0.05-0.05,0.1-0.08,0.16
		c0.18,0.16,0.36,0.32,0.54,0.48c0.4,0.37,0.79,0.74,1.18,1.12c0.18,0.18,0.36,0.36,0.53,0.54c0.19,0.19,0.38,0.38,0.56,0.58
		c0.34,0.35,0.67,0.71,1,1.08c0.28,0.31,0.56,0.62,0.84,0.94l0,0c0.05,0.05,0.08,0.08,0.09,0.1h2.41c0-0.02,0-0.04,0-0.06
		C357.25-79.93,357.26-80.07,357.27-80.2 M350.1-84.55L350.1-84.55L350.1-84.55l0,0.01C350.1-84.54,350.1-84.55,350.1-84.55"/>
	<path fill="#525353" d="M321.01-76.68l0.02-0.05c0.32-0.84,0.7-1.66,1.12-2.45c0.06-0.12,0.13-0.25,0.2-0.37
		c0.04-0.07,0.08-0.13,0.12-0.2c0.17-0.3,0.34-0.6,0.53-0.9c0.04-0.07,0.09-0.14,0.13-0.21c0.23-0.36,0.47-0.7,0.72-1.04
		c0.02-0.03,0.04-0.06,0.06-0.09c0.26-0.35,0.54-0.69,0.82-1.03c0.06-0.07,0.12-0.14,0.18-0.21c0.28-0.32,0.57-0.64,0.88-0.94
		c0.06-0.06,0.12-0.12,0.18-0.18c0.32-0.32,0.65-0.62,0.99-0.91l0,0c1.35-4.51,5.7-7.29,10.58-7.29c1.96,0,3.92,0.57,5.59,1.59
		c1.72,1.05,2.89,2.08,3.8,3.87l0.01,0.03c0.02,0.04,0.05,0.09,0.07,0.13l0,0l0,0c0.76,0.47,1.49,1,2.18,1.58
		c0.23,0.19,0.46,0.39,0.68,0.6c0.07,0.07,0.15,0.13,0.22,0.2c0,0,0-0.01,0-0.01c0,0,0,0,0-0.01c0.02-0.05,0.05-0.1,0.07-0.15
		c0.69-4.34,2.87-6.71,5.13-6.71c1.7,0,2.94,1.02,3.87,3.75l0.01,0.03l0,0c0.28,0.3,0.53,0.62,0.77,0.95l0,0
		c0,0.01,0.01,0.01,0.01,0.02l0,0l0,0c0.01,0.04,0.02,0.08,0.04,0.12l0,0l-0.04-0.14c-2.81-8.32-10.67-14.3-19.94-14.3
		C328.42-101,319-91.58,319-79.96c0,2.29,0.37,4.5,1.05,6.55l0-0.01C320.29-74.53,320.61-75.62,321.01-76.68"/>
	<path fill="#FFFFFF" d="M360.29-79.73l-0.73,0.82l0,0l0,0c-0.03,0.11-0.06,0.21-0.1,0.31c-0.01,0.03-0.02,0.05-0.03,0.07
		c-0.03,0.07-0.06,0.13-0.09,0.2c-0.02,0.03-0.04,0.07-0.05,0.1c-0.03,0.05-0.06,0.09-0.1,0.14c-0.05,0.06-0.1,0.12-0.15,0.17
		c-0.02,0.02-0.04,0.04-0.07,0.06c-0.06,0.04-0.12,0.08-0.18,0.11c-0.1,0.05-0.21,0.08-0.33,0.08c-0.67,0-1.21-0.93-1.21-2.07h-2.42
		l0,0c0.46,0.53,0.9,1.06,1.34,1.6c0.42,0.52,0.84,1.04,1.26,1.56l0.06,0.08c0.39,0.5,0.78,1,1.16,1.51l0.11,0.15
		c0.41,0.54,0.81,1.08,1.22,1.62c0.71-2.1,1.08-4.3,1.1-6.51l-0.68-0.03L360.29-79.73"/>
	<path d="M336.84-89.45c0.05,0,0.11-0.01,0.16-0.01c0.38-0.03,0.76-0.04,1.13-0.04c1.14,0,2.26,0.12,3.34,0.35l0,0
		c0.76,0.18,2.12,0.55,3.13,0.98c0.42,0.18,0.84,0.38,1.25,0.59l0.09,0.05l0.02,0.01c0.04,0.02,0.08,0.04,0.13,0.07l0,0l0.18,0.1
		l0.02,0.01c0.26,0.15,0.55,0.31,0.66,0.37l0.03,0.02l0.02,0.01c-0.02-0.04-0.05-0.09-0.07-0.13l-0.01-0.03
		c-0.91-1.79-2.31-3.33-4.03-4.38c-1.67-1.02-3.63-1.59-5.59-1.59c-4.88,0-9,3.29-10.35,7.8c1.28-1.09,2.7-2.01,4.22-2.71
		C332.96-88.79,334.89-89.3,336.84-89.45"/>
	<path fill="#BBBCBD" d="M359.97-86.68L359.97-86.68L359.97-86.68c0-0.01-0.01-0.01-0.01-0.02l0,0c-0.24-0.33-0.49-0.65-0.77-0.95
		l-0.01-0.01c-0.12-0.13-0.24-0.25-0.36-0.37c-0.05-0.04-0.09-0.08-0.14-0.12c-0.08-0.07-0.15-0.14-0.23-0.21v2.79l1.07,4.89l0,0
		c0.01,0.04,0.03,0.07,0.04,0.11l0.74,0.83l0.01-0.01h0.77c0-0.07,0-0.14,0-0.21v0c0-2.24-0.36-4.47-1.07-6.6l0,0
		C360-86.6,359.99-86.64,359.97-86.68"/>
	<path d="M352.43-87.96c0.86-0.84,2-1.52,3.23-1.52c0.97,0,1.91,0.4,2.78,1.12v0.01v0v0c0.08,0.06,0.16,0.14,0.23,0.21
		c0.05,0.04,0.09,0.08,0.14,0.12c0.12,0.12,0.25,0.25,0.36,0.37l0.01,0.01c0,0,0,0,0,0v0l-0.01-0.03c-0.93-2.73-2.44-4.51-4.14-4.51
		c-2.26,0-4.17,3.13-4.86,7.47l0.01-0.01C350.77-85.89,351.49-87.04,352.43-87.96 M349.38-61.29c0,0-0.3-0.24-0.69-0.69
		c-0.18-0.21-0.35-0.42-0.5-0.65c-0.05-0.07-0.1-0.15-0.15-0.22c-0.15-0.23-0.26-0.51-0.39-0.79c-0.15-0.32-0.15-0.54-0.23-0.84
		c-0.06-0.22-0.11-0.44-0.15-0.67c-0.06-0.37-0.08-0.74-0.07-1.11c0.01-0.21,0.03-0.44,0.06-0.66s0.08-0.45,0.13-0.67
		c0.17-0.68,0.46-1.41,0.92-2.17l0.12-0.26c0.15-0.25,0.18-0.24,0.33-0.48c2.01-3.39,3.09-5.95,2.56-9.89
		c-0.06-0.4-0.12-0.81-0.2-1.21c-0.05,0.29-0.1,0.58-0.15,0.87c-0.02,0.09-0.08,0.19-0.1,0.25c-0.87,2.58-2.24,4.48-4.22,6.62
		c-0.28,0.3-0.55,0.59-0.84,0.88c-0.5,0.52-1.01,1.04-1.52,1.54c-0.21,0.21-0.43,0.43-0.65,0.65c-0.2,0.2-0.46,0.63-0.76,0.95
		c-0.19,0.52-0.4,1.11-0.58,1.73c-0.08-0.03-0.16-0.06-0.24-0.09c-3.84-1.48-6.41-3.47-6.41-3.47s1.98,2.57,5.31,4.99
		c0.31,0.22,0.62,0.43,0.95,0.62c-0.14,2.17,0.82,4.26,5.15,4.88c0.73,0.11,1.48,0.1,2.24,0.02c-0.01-0.02,0.04-0.02,0.04-0.04
		c0-0.01,0.04-0.05,0.04-0.05"/>
	<path fill="#9F2254" d="M347.06-66.88c3.84,0.62,9.53,0.52,15.44-2.25c0.14-0.07,0.3,0.11,0.44,0.04c0,0-4.04,4.12-8.86,6.45
		c-0.14,0.07-0.28,0.14-0.42,0.21c-0.47,0.21-0.94,0.4-1.42,0.57c-0.93,0.33-1.88,0.59-2.82,0.71c-0.04,0-0.09,0.01-0.13,0.02
		c-0.01-0.02-0.01-0.04-0.02-0.05l-0.01-0.02c0,0-0.3-0.24-0.69-0.68c-0.18-0.21-0.35-0.42-0.5-0.65c-0.22-0.31-0.4-0.64-0.56-0.99
		c-0.13-0.29-0.25-0.59-0.33-0.9c-0.17-0.58-0.24-1.18-0.22-1.78c0.01-0.22,0.03-0.44,0.06-0.66L347.06-66.88"/>
	<path fill="#FCB03F" d="M344.31-71.26c0.51-0.51,1.02-1.03,1.52-1.54c0.28-0.29,0.56-0.58,0.83-0.88c1.97-2.14,3.42-4.15,4.3-6.73
		c0.02-0.06,0.04-0.14,0.06-0.23l0.01-0.04c0.02-0.1,0.04-0.2,0.06-0.32c0.01-0.08,0.27-0.25,0.28-0.33
		c-0.22-1.12-0.72-2.31-1.27-3.21c0,0,0,0.01,0,0.01l-0.01-0.01c-0.07-0.07-0.15-0.13-0.22-0.2c-0.22-0.21-0.45-0.4-0.68-0.6
		c-0.69-0.58-1.41-1.11-2.18-1.58c0.04,0.63,0.06,1.26,0.07,1.89c0,0.07,0,0.14,0,0.21c0,0.24,0,0.49,0,0.73
		c-0.01,0.31-0.02,0.63-0.03,0.94c-0.01,0.23-0.03,0.46-0.04,0.7c0,0.02,0,0.05-0.01,0.07c-0.07,0.88-0.18,1.75-0.34,2.62
		l-0.28,1.31c-0.58,2.35-1.76,4.48-2.72,6.68c-0.26,0.58-0.5,1.17-0.71,1.78l-0.06,0.17c0.25-0.27,0.51-0.53,0.77-0.79
		C343.88-70.83,344.1-71.05,344.31-71.26"/>
	<path fill="#525353" d="M331.61-58.62c1.41-0.62,2.71-1.01,4.26-1.32c-0.01-0.34-0.03-0.67-0.05-1c0.66-1.71,1.27-3.45,1.83-5.2
		c-0.99,0.1-1.97,0.25-2.94,0.46c-0.72,0.15-1.43,0.34-2.13,0.56c-0.57,0.17-1.12,0.37-1.68,0.57l2.19,0.53l-1.76,5.52L331.61-58.62
		"/>
	<path fill="#DF0067" d="M358.65-74.99c-0.38-0.5-0.77-1.01-1.16-1.51l-0.06-0.08c-0.42-0.53-0.84-1.06-1.27-1.58
		c-0.44-0.53-0.88-1.06-1.33-1.58c-0.03-0.03-0.06-0.07-0.08-0.1c-0.37-0.43-0.75-0.85-1.13-1.26c-0.23-0.25-0.47-0.51-0.71-0.75
		c-0.19-0.19-0.37-0.39-0.56-0.58c-0.18-0.18-0.35-0.36-0.53-0.54c-0.39-0.38-0.78-0.75-1.18-1.12c-0.18-0.16-0.36-0.32-0.54-0.48
		c0,0,0,0,0,0.01c0.38,1.09,0.81,2.2,1.03,3.34c0.06,0.3,0.1,0.58,0.14,0.87c0.53,3.94-0.73,6.52-2.74,9.91
		c-0.15,0.25-0.29,0.49-0.44,0.74c-0.46,0.77-0.75,1.49-0.92,2.17c-0.06,0.22-0.1,0.44-0.13,0.67c3.94,0.63,9.85,0.75,15.91-2.22
		c0,0-1.19-1.75-2.97-4.14c-0.4-0.54-0.8-1.07-1.21-1.61C358.72-74.89,358.68-74.94,358.65-74.99"/>
	<path fill="#AA9678" d="M331.12-57.52l1.97-6.51l-2.19-0.53c-0.49,0.18-0.97,0.38-1.45,0.59l-1.95,6.45l2.18,0.03L331.12-57.52"/>
	<path fill="#FFFFFF" d="M332.5-60.33c0.19,0.07,0.39,0.14,0.58,0.21c2.23,0.78,4.58,1.18,6.95,1.18c2.69,0,5.36-0.52,7.86-1.52
		c0.13-0.05,0.25-0.11,0.38-0.16c0.21-0.09,0.41-0.18,0.61-0.27c0.18-0.08,0.36-0.17,0.54-0.26c-0.04,0-0.09,0.01-0.13,0.02
		c-0.75,0.08-1.5,0.09-2.24-0.02c-4.33-0.62-5.29-2.71-5.15-4.88c-0.33-0.19-0.65-0.39-0.95-0.62c-3.33-2.42-5.31-4.99-5.31-4.99
		s2.57,1.98,6.41,3.47c0.08,0.03,0.16,0.06,0.24,0.09c0.18-0.62,0.39-1.21,0.58-1.73l0.06-0.17c0.21-0.6,0.46-1.19,0.71-1.78
		c0.97-2.2,2.15-4.33,2.72-6.68l0.28-1.31h-2.37l0,0v0.01h0c0,0.01,0,0.01,0,0.02c0,0.56-0.17,1.11-0.48,1.58
		c-0.31,0.46-0.74,0.81-1.24,1.02c-0.44,0.19-0.92,0.26-1.39,0.21c-0.02,0-0.04-0.01-0.07-0.01c-0.07-0.01-0.15-0.02-0.22-0.03
		c-0.02-0.01-0.04-0.01-0.06-0.02c-0.07-0.02-0.15-0.04-0.22-0.06c-0.01,0-0.03-0.01-0.04-0.01c-0.08-0.03-0.15-0.05-0.23-0.09
		c-0.01,0-0.01-0.01-0.02-0.01c-0.08-0.04-0.16-0.07-0.23-0.12l0,0c-0.24-0.14-0.46-0.31-0.66-0.51l-8.11-1.98h-8.85
		c-0.04,0.07-0.08,0.13-0.12,0.2c-0.07,0.12-0.13,0.25-0.2,0.37c-0.22,0.41-0.42,0.83-0.61,1.25c-0.18,0.4-0.35,0.8-0.5,1.2
		l-0.02,0.05c-0.4,1.06-0.72,2.15-0.96,3.25c1.39,4.25,4.11,7.9,7.65,10.48c0.1,0.07,0.21,0.14,0.32,0.21
		c0.6,0.42,1.22,0.81,1.86,1.17C330.72-61.09,331.6-60.68,332.5-60.33"/>
	<path fill="#8B7460" d="M353.73-55.3c-0.06-0.56-0.09-1.13-0.09-1.69c0-0.34-0.28-0.62-0.62-0.62h-26.04
		c-0.34,0-0.62,0.28-0.62,0.62c0,0.57-0.03,1.13-0.09,1.69c-0.06,0.61-0.16,1.22-0.28,1.83c0.38,0.2,0.76,0.39,1.14,0.58
		c0.26-1.13,0.41-2.28,0.45-3.44c0-0.01,0-0.03,0-0.04h24.82c0,0.01,0,0.03,0,0.04c0.04,1.16,0.19,2.31,0.45,3.44
		c0.38-0.18,0.77-0.38,1.14-0.58C353.88-54.08,353.79-54.69,353.73-55.3"/>
</g>
<g>
	<path fill="#A5DBE8" d="M329.45,56.03c0.48-0.21,0.96-0.41,1.45-0.59c0.55-0.21,1.11-0.4,1.68-0.57c0.7-0.21,1.41-0.4,2.13-0.56
		c0.97-0.21,1.95-0.36,2.94-0.46c-0.56,1.75-1.17,3.48-1.83,5.2c0.03,0.33,0.04,0.67,0.05,1c1.36-0.27,2.74-0.41,4.13-0.41
		c1.41,0,2.79,0.14,4.13,0.41c0.01-0.34,0.03-0.67,0.05-1c-0.66-1.71-1.27-3.45-1.83-5.2c0.99,0.1,1.97,0.25,2.94,0.46
		c0.72,0.15,1.43,0.34,2.13,0.56c0.57,0.17,1.12,0.37,1.68,0.57c0.49,0.18,0.98,0.38,1.46,0.59c3.46,1.54,6.55,3.82,9.04,6.67
		C365.96,57.21,370,49.08,370,40c0-16.57-13.43-30-30-30s-30,13.43-30,30c0,9.08,4.04,17.21,10.41,22.71
		C322.9,59.85,325.99,57.58,329.45,56.03"/>
	<path fill="#525353" d="M350.55,56.04l1.86,6.4l0.53,0.02c0.34,0,0.58,0.09,0.58,0.43c0,0.57,0.03,1.21,0.08,1.77
		c0.46,0.4,1.03,0.84,1.46,1.27c1.6-0.93,3.12-2.01,4.52-3.23C357.1,59.85,354.02,57.58,350.55,56.04 M346.91,55.97l2.19-0.53
		c-0.55-0.21-1.11-0.4-1.68-0.57c-0.7-0.21-1.41-0.4-2.13-0.56c-0.97-0.21-1.95-0.36-2.94-0.46c0.56,1.75,1.17,3.48,1.83,5.2
		c-0.03,0.33-0.04,0.67-0.05,1c1.55,0.31,3.07,0.84,4.48,1.46L346.91,55.97"/>
	<path d="M324.93,65.94c0.35,0.2,0.7,0.4,1.06,0.59c0.12-0.6,0.33-1.43,0.39-2.05C325.91,64.87,325.36,65.5,324.93,65.94
		 M348.58,61.46c-1.42-0.63-2.92-1.1-4.45-1.4c-1.36-0.27-2.74-0.41-4.13-0.41c-1.41,0-2.79,0.14-4.13,0.41
		c-1.55,0.3-3.17,0.77-4.57,1.39l-0.15,0.93h17.71L348.58,61.46"/>
	<path fill="#525353" d="M326.32,64.65c0.05-0.56,0.09-1.06,0.09-1.63c0-0.34,0.24-0.56,0.58-0.56l0.56-0.02l1.89-6.41
		c-3.46,1.54-6.55,3.82-9.04,6.67c1.4,1.21,2.92,2.29,4.52,3.23c0.43-0.43,0.88-0.85,1.34-1.24"/>
	<path d="M353.84,65.79c0.12,0.61,0.15,0.73,0.17,0.73c0.36-0.19,0.71-0.39,1.06-0.59c-0.43-0.44-0.88-0.85-1.35-1.25L353.84,65.79"
		/>
	<path fill="#AA9678" d="M348.58,61.46l0.28,0.92h3.62l-1.92-6.35c-0.48-0.21-0.96-0.41-1.46-0.59l-2.19,0.53L348.58,61.46"/>
	<path fill="#C4B6A1" d="M327.59,63.67c0.02-0.01,0.04-0.03,0.06-0.04h-0.05C327.59,63.64,327.59,63.65,327.59,63.67"/>
	<path fill="#AA9678" d="M352.41,63.62h-0.05l0.06,0.04C352.41,63.65,352.41,63.64,352.41,63.62"/>
	<path fill="#AA9678" d="M352.35,63.53l-12.37,0.01L340,70c4.61,0,8.97-1.04,12.87-2.89c-0.25-1.12-0.28-2.32-0.32-3.5
		C352.53,63.6,352.35,63.53,352.35,63.53"/>
	<path fill="#C4B6A1" d="M339.98,63.57c0,0-12.44-0.02-12.46,0c-0.04,1.17-0.28,2.56-0.39,3.54c3.9,1.85,8.26,2.89,12.87,2.89
		l0.01-6.41L339.98,63.57"/>
	<path fill="#786453" d="M340,63L340,63v0.62l0,0V63z"/>
	<path fill="#525353" d="M348.59,58.1"/>
	<path fill="#AA9678" d="M349.28,58.79l0.01,0.02L349.28,58.79c0,0-0.3-0.24-0.69-0.68C348.98,58.55,349.28,58.79,349.28,58.79"/>
	<path fill="#FFFFFF" d="M358.45,31.64L358.45,31.64L358.45,31.64 M359.65,40.28L359.65,40.28L359.65,40.28"/>
	<path fill="#BBBCBD" d="M359.65,40.27L359.65,40.27L359.65,40.27"/>
	<path fill="#676A6A" d="M359.62,39.81c0,0.01,0,0.01,0,0.02c0,0.01,0,0.01,0,0.01v0c0.01,0.12,0.02,0.23,0.02,0.36
		c0,0.02,0,0.04,0,0.07l0,0.01l0,0.01c0,0.02,0,0.05,0,0.07c0,0.12-0.01,0.23-0.02,0.35v0l0,0.02c0,0.01,0,0.02,0,0.03
		c-0.02,0.12-0.04,0.24-0.07,0.36v0l0,0l0-0.01l0,0l0,0l0.79-0.82l-0.79-0.83v0C359.58,39.56,359.6,39.68,359.62,39.81"/>
	<path d="M359.62,40.74c0-0.01,0.01-0.03,0.01-0.04c0.01-0.11,0.02-0.23,0.02-0.35c0-0.03,0-0.05,0-0.08s0-0.05,0-0.07
		c0-0.12-0.01-0.24-0.02-0.36c0-0.01,0-0.03-0.01-0.04c-0.02-0.12-0.04-0.24-0.07-0.36c-0.01-0.04-0.02-0.08-0.04-0.12
		c-0.07-0.23-0.17-0.44-0.28-0.62c-0.04-0.06-0.09-0.13-0.14-0.19c-0.05-0.05-0.1-0.1-0.16-0.14c-0.02-0.02-0.04-0.03-0.06-0.04
		c-0.06-0.04-0.13-0.08-0.21-0.1c-0.07-0.02-0.14-0.04-0.22-0.04c-0.07,0-0.14,0.02-0.21,0.04c-0.07,0.03-0.14,0.06-0.21,0.1
		c-0.02,0.01-0.04,0.02-0.06,0.04c-0.1,0.08-0.18,0.17-0.25,0.27c-0.02,0.02-0.03,0.04-0.05,0.07c-0.11,0.17-0.21,0.38-0.28,0.62
		l-0.01,0.03c-0.03,0.11-0.06,0.22-0.08,0.34c-0.01,0.04-0.01,0.07-0.02,0.11c-0.02,0.13-0.03,0.27-0.03,0.41c0,0.02,0,0.04,0,0.06
		h0c0,1.14,0.54,2.07,1.21,2.07c0.12,0,0.23-0.03,0.33-0.08c0.06-0.03,0.12-0.07,0.18-0.11c0.02-0.02,0.04-0.04,0.07-0.06
		c0.05-0.05,0.1-0.11,0.15-0.17c0.03-0.04,0.07-0.09,0.1-0.14c0.02-0.03,0.04-0.06,0.05-0.1c0.03-0.06,0.07-0.13,0.09-0.2
		c0.01-0.02,0.02-0.05,0.03-0.07c0.04-0.1,0.07-0.2,0.1-0.3C359.58,40.99,359.6,40.87,359.62,40.74L359.62,40.74z M358.49,40
		c-0.25,0-0.45-0.35-0.45-0.78c0-0.43,0.2-0.78,0.45-0.78c0.25,0,0.45,0.35,0.45,0.78C358.94,39.65,358.74,40,358.49,40z"/>
	<path fill="#FFFFFF" d="M358.49,38.45c-0.25,0-0.45,0.35-0.45,0.78c0,0.43,0.2,0.78,0.45,0.78c0.25,0,0.45-0.35,0.45-0.78
		C358.94,38.79,358.74,38.45,358.49,38.45"/>
	<path fill="#909393" d="M357.38,39.33c0.07-0.23,0.17-0.44,0.28-0.62c0.02-0.02,0.03-0.04,0.05-0.07c0.07-0.1,0.15-0.19,0.25-0.27
		c0.02-0.02,0.04-0.03,0.06-0.04c0.07-0.04,0.13-0.08,0.21-0.1c0.07-0.02,0.14-0.04,0.21-0.04c0.07,0,0.15,0.02,0.22,0.04
		c0.07,0.03,0.14,0.06,0.21,0.1c0.02,0.01,0.04,0.02,0.06,0.04c0.05,0.04,0.1,0.09,0.16,0.14c0.05,0.06,0.1,0.12,0.14,0.19
		c0.11,0.17,0.21,0.38,0.28,0.62l0,0l-1.07-4.89L357.38,39.33L357.38,39.33"/>
	<path d="M344.29,40.23c0-0.1-0.01-0.2-0.02-0.29c0,0,0,0,0,0c-0.01-0.09-0.03-0.19-0.05-0.28l0-0.01
		c-0.02-0.09-0.04-0.18-0.07-0.27l0-0.01c-0.03-0.09-0.06-0.17-0.1-0.25c0,0,0,0,0,0c-0.3-0.66-0.84-1.19-1.51-1.46l-0.01,0
		c-0.16-0.07-0.33-0.12-0.51-0.15c0,0-0.01,0-0.01,0c-0.18-0.04-0.36-0.05-0.54-0.05c-0.18,0-0.36,0.02-0.53,0.05l-0.02,0
		c-0.17,0.03-0.34,0.08-0.5,0.15l-0.01,0c-0.16,0.07-0.31,0.15-0.46,0.24c-0.15,0.09-0.28,0.2-0.41,0.32l0,0.01l-0.01,0
		c-0.2,0.19-0.38,0.41-0.51,0.66l0,0.01c-0.04,0.07-0.08,0.15-0.12,0.23c0,0.01-0.01,0.02-0.01,0.03c-0.03,0.07-0.06,0.15-0.08,0.22
		c-0.01,0.01-0.01,0.03-0.02,0.04c-0.02,0.07-0.04,0.14-0.06,0.22c0,0.02-0.01,0.04-0.02,0.06c-0.01,0.07-0.02,0.15-0.03,0.22
		c0,0.02-0.01,0.04-0.01,0.07c-0.03,0.28-0.02,0.56,0.04,0.84c0,0,0,0.01,0,0.01c0.04,0.18,0.09,0.35,0.15,0.51c0,0,0,0.01,0,0.01
		c0.13,0.33,0.33,0.62,0.58,0.88c0.19,0.2,0.41,0.37,0.66,0.51l0,0c0.08,0.04,0.15,0.08,0.23,0.12c0.01,0,0.01,0.01,0.02,0.01
		c0.07,0.03,0.15,0.06,0.23,0.09c0.01,0,0.03,0.01,0.04,0.01c0.07,0.02,0.15,0.04,0.22,0.06c0.02,0,0.04,0.01,0.06,0.02
		c0.07,0.01,0.15,0.02,0.22,0.03c0.02,0,0.04,0.01,0.07,0.01c0.66,0.07,1.32-0.1,1.87-0.47c0.3-0.2,0.56-0.46,0.76-0.76
		c0.31-0.47,0.48-1.02,0.48-1.58c0-0.01,0-0.01,0-0.02C344.29,40.24,344.29,40.23,344.29,40.23L344.29,40.23z M341.46,39.89
		c-0.59,0-1.06-0.47-1.06-1.06c0-0.59,0.48-1.06,1.06-1.06s1.06,0.48,1.06,1.06S342.05,39.9,341.46,39.89z"/>
	<path fill="#FFFFFF" d="M341.46,37.77c-0.59,0-1.06,0.47-1.06,1.06c0,0.59,0.47,1.06,1.06,1.06c0,0,0,0,0,0
		c0.59,0,1.06-0.47,1.06-1.06C342.53,38.25,342.05,37.77,341.46,37.77"/>
	<path fill="#BBBCBD" d="M339.52,38.22L339.52,38.22l0.01-0.01l1.95-5.95v-1.39v-0.02c-1.1-0.23-2.22-0.34-3.34-0.35
		c-0.38,0-0.76,0.02-1.13,0.04c-0.05,0.01-0.11,0.01-0.16,0.01c-1.95,0.15-3.88,0.66-5.66,1.47c-1.53,0.7-2.95,1.62-4.22,2.71l0,0
		l0,0c-0.34,0.29-0.67,0.6-0.99,0.91c-0.06,0.06-0.12,0.12-0.18,0.18c-0.3,0.3-0.59,0.62-0.88,0.94c-0.06,0.07-0.12,0.14-0.18,0.21
		c-0.29,0.33-0.56,0.68-0.82,1.03c-0.02,0.03-0.04,0.06-0.06,0.09c-0.25,0.34-0.49,0.69-0.72,1.04c-0.04,0.07-0.09,0.14-0.13,0.21
		c-0.19,0.29-0.36,0.6-0.53,0.9h8.87L339.52,38.22"/>
	<path fill="#E3DDDB" d="M347.01,37.55c0.02-0.23,0.03-0.46,0.04-0.7c0.02-0.31,0.03-0.63,0.03-0.94c0-0.25,0-0.49,0-0.73
		c0-0.07,0-0.14,0-0.21c-0.01-0.63-0.03-1.26-0.07-1.89l0,0l0,0c-0.23-0.13-0.47-0.27-0.7-0.4l-0.02-0.01l-0.18-0.1l0,0l-0.13-0.07
		l-0.02-0.01c-0.03-0.02-0.06-0.03-0.09-0.05c-0.41-0.21-0.82-0.41-1.25-0.59c-1.01-0.43-2.37-0.8-3.13-0.98v1.41l1.93,5.96l0,0.01
		c0.2,0.19,0.37,0.41,0.51,0.65l0,0c0.04,0.08,0.09,0.16,0.12,0.24c0,0,0,0,0,0c0.04,0.08,0.07,0.17,0.1,0.25l0,0.01
		c0.03,0.09,0.05,0.18,0.07,0.27l0,0.01c0.02,0.09,0.04,0.19,0.05,0.28c0,0,0,0,0,0c0.01,0.1,0.02,0.19,0.02,0.29l0.01,0.02h2.36
		c0.16-0.87,0.27-1.74,0.34-2.62C347,37.6,347,37.57,347.01,37.55"/>
	<path fill="#FCB03F" d="M350.1,35.44C350.09,35.44,350.09,35.45,350.1,35.44L350.1,35.44"/>
	<path fill="#909393" d="M339.53,38.21c0.13-0.12,0.26-0.23,0.41-0.32c0.15-0.09,0.3-0.17,0.46-0.24c0,0,0.01,0,0.01,0
		c0.16-0.07,0.33-0.12,0.5-0.15l0.02,0c0.18-0.03,0.35-0.05,0.53-0.05c0.18,0,0.37,0.02,0.54,0.05c0,0,0.01,0,0.01,0
		c0.18,0.04,0.35,0.09,0.51,0.16c0.33,0.13,0.62,0.33,0.88,0.57l0-0.01l-1.93-5.96L339.53,38.21"/>
	<path fill="#676A6A" d="M338.85,41.33c-0.07-0.16-0.12-0.33-0.15-0.51c0,0,0-0.01,0-0.01c-0.06-0.28-0.07-0.56-0.04-0.84
		c0-0.02,0.01-0.04,0.01-0.07c0.01-0.07,0.02-0.15,0.03-0.22c0-0.02,0.01-0.04,0.02-0.06c0.02-0.07,0.04-0.15,0.06-0.22
		c0-0.01,0.01-0.03,0.02-0.04c0.03-0.08,0.05-0.15,0.08-0.22c0-0.01,0.01-0.02,0.01-0.03c0.04-0.08,0.07-0.16,0.12-0.23l0-0.01
		c0.14-0.24,0.31-0.46,0.51-0.66l-8.19,2.02h-0.02l8.11,1.98C339.18,41.97,338.99,41.67,338.85,41.33
		C338.85,41.34,338.85,41.34,338.85,41.33"/>
	<path fill="#E3DDDB" d="M357.27,39.8c0-0.04,0.01-0.07,0.02-0.11c0.02-0.12,0.04-0.23,0.08-0.34c0-0.01,0-0.03,0.01-0.04l1.07-4.89
		v-2.79c-0.87-0.72-1.81-1.12-2.78-1.12c-1.23,0-2.38,0.68-3.23,1.52c-0.94,0.92-1.66,2.07-2.25,3.24c-0.03,0.05-0.05,0.1-0.08,0.16
		c0.18,0.16,0.36,0.32,0.54,0.48c0.4,0.37,0.79,0.74,1.18,1.12c0.18,0.18,0.36,0.36,0.53,0.54c0.19,0.19,0.38,0.38,0.56,0.58
		c0.34,0.35,0.67,0.71,1,1.08c0.28,0.31,0.56,0.62,0.84,0.94l0,0c0.05,0.05,0.08,0.08,0.09,0.1h2.41c0-0.02,0-0.04,0-0.06
		C357.25,40.07,357.26,39.93,357.27,39.8 M350.1,35.45L350.1,35.45L350.1,35.45l0,0.01C350.1,35.46,350.1,35.45,350.1,35.45"/>
	<path fill="#525353" d="M321.01,43.32l0.02-0.05c0.32-0.84,0.7-1.66,1.12-2.45c0.06-0.12,0.13-0.25,0.2-0.37
		c0.04-0.07,0.08-0.13,0.12-0.2c0.17-0.3,0.34-0.6,0.53-0.9c0.04-0.07,0.09-0.14,0.13-0.21c0.23-0.36,0.47-0.7,0.72-1.04
		c0.02-0.03,0.04-0.06,0.06-0.09c0.26-0.35,0.54-0.69,0.82-1.03c0.06-0.07,0.12-0.14,0.18-0.21c0.28-0.32,0.57-0.64,0.88-0.94
		c0.06-0.06,0.12-0.12,0.18-0.18c0.32-0.32,0.65-0.62,0.99-0.91l0,0c1.35-4.51,5.7-7.29,10.58-7.29c1.96,0,3.92,0.57,5.59,1.59
		c1.72,1.05,2.89,2.08,3.8,3.87l0.01,0.03c0.02,0.04,0.05,0.09,0.07,0.13l0,0l0,0c0.76,0.47,1.49,1,2.18,1.58
		c0.23,0.19,0.46,0.39,0.68,0.6c0.07,0.07,0.15,0.13,0.22,0.2c0,0,0-0.01,0-0.01c0,0,0,0,0-0.01c0.02-0.05,0.05-0.1,0.07-0.15
		c0.69-4.34,2.87-6.71,5.13-6.71c1.7,0,2.94,1.02,3.87,3.75l0.01,0.03l0,0c0.28,0.3,0.53,0.62,0.77,0.95l0,0
		c0,0.01,0.01,0.01,0.01,0.02l0,0l0,0c0.01,0.04,0.02,0.08,0.04,0.12l0,0l-0.04-0.14C357.17,24.99,349.3,19,340.04,19
		C328.42,19,319,28.42,319,40.04c0,2.29,0.37,4.5,1.05,6.55l0-0.01C320.29,45.47,320.61,44.38,321.01,43.32"/>
	<path fill="#FFFFFF" d="M360.29,40.27l-0.73,0.82l0,0l0,0c-0.03,0.11-0.06,0.21-0.1,0.31c-0.01,0.03-0.02,0.05-0.03,0.07
		c-0.03,0.07-0.06,0.13-0.09,0.2c-0.02,0.03-0.04,0.07-0.05,0.1c-0.03,0.05-0.06,0.09-0.1,0.14c-0.05,0.06-0.1,0.12-0.15,0.17
		c-0.02,0.02-0.04,0.04-0.07,0.06c-0.06,0.04-0.12,0.08-0.18,0.11c-0.1,0.05-0.21,0.08-0.33,0.08c-0.67,0-1.21-0.93-1.21-2.07h-2.42
		l0,0c0.46,0.53,0.9,1.06,1.34,1.6c0.42,0.52,0.84,1.04,1.26,1.56l0.06,0.08c0.39,0.5,0.78,1,1.16,1.51l0.11,0.15
		c0.41,0.54,0.81,1.08,1.22,1.62c0.71-2.1,1.08-4.3,1.1-6.51l-0.68-0.03L360.29,40.27"/>
	<path d="M336.84,30.55c0.05,0,0.11-0.01,0.16-0.01c0.38-0.03,0.76-0.04,1.13-0.04c1.14,0,2.26,0.12,3.34,0.35l0,0
		c0.76,0.18,2.12,0.55,3.13,0.98c0.42,0.18,0.84,0.38,1.25,0.59l0.09,0.05l0.02,0.01c0.04,0.02,0.08,0.04,0.13,0.07l0,0l0.18,0.1
		l0.02,0.01c0.26,0.15,0.55,0.31,0.66,0.37l0.03,0.02l0.02,0.01c-0.02-0.04-0.05-0.09-0.07-0.13l-0.01-0.03
		c-0.91-1.79-2.31-3.33-4.03-4.38c-1.67-1.02-3.63-1.59-5.59-1.59c-4.88,0-9,3.29-10.35,7.8c1.28-1.09,2.7-2.01,4.22-2.71
		C332.96,31.21,334.89,30.7,336.84,30.55"/>
	<path fill="#BBBCBD" d="M359.97,33.32L359.97,33.32L359.97,33.32c0-0.01-0.01-0.01-0.01-0.02l0,0c-0.24-0.33-0.49-0.65-0.77-0.95
		l-0.01-0.01c-0.12-0.13-0.24-0.25-0.36-0.37c-0.05-0.04-0.09-0.08-0.14-0.12c-0.08-0.07-0.15-0.14-0.23-0.21v2.79l1.07,4.89l0,0
		c0.01,0.04,0.03,0.07,0.04,0.11l0.74,0.83l0.01-0.01h0.77c0-0.07,0-0.14,0-0.21v0c0-2.24-0.36-4.47-1.07-6.6l0,0
		C360,33.4,359.99,33.36,359.97,33.32"/>
	<path d="M352.43,32.04c0.86-0.84,2-1.52,3.23-1.52c0.97,0,1.91,0.4,2.78,1.12v0.01v0v0c0.08,0.06,0.16,0.14,0.23,0.21
		c0.05,0.04,0.09,0.08,0.14,0.12c0.12,0.12,0.25,0.25,0.36,0.37l0.01,0.01c0,0,0,0,0,0v0l-0.01-0.03c-0.93-2.73-2.44-4.51-4.14-4.51
		c-2.26,0-4.17,3.13-4.86,7.47l0.01-0.01C350.77,34.11,351.49,32.96,352.43,32.04 M349.38,58.71c0,0-0.3-0.24-0.69-0.69
		c-0.18-0.21-0.35-0.42-0.5-0.65c-0.05-0.07-0.1-0.15-0.15-0.22c-0.15-0.23-0.26-0.51-0.39-0.79c-0.15-0.32-0.15-0.54-0.23-0.84
		c-0.06-0.22-0.11-0.44-0.15-0.67c-0.06-0.37-0.08-0.74-0.07-1.11c0.01-0.21,0.03-0.44,0.06-0.66s0.08-0.45,0.13-0.67
		c0.17-0.68,0.46-1.41,0.92-2.17l0.12-0.26c0.15-0.25,0.18-0.24,0.33-0.48c2.01-3.39,3.09-5.95,2.56-9.89
		c-0.06-0.4-0.12-0.81-0.2-1.21c-0.05,0.29-0.1,0.58-0.15,0.87c-0.02,0.09-0.08,0.19-0.1,0.25c-0.87,2.58-2.24,4.48-4.22,6.62
		c-0.28,0.3-0.55,0.59-0.84,0.88c-0.5,0.52-1.01,1.04-1.52,1.54c-0.21,0.21-0.43,0.43-0.65,0.65c-0.2,0.2-0.46,0.63-0.76,0.95
		c-0.19,0.52-0.4,1.11-0.58,1.73c-0.08-0.03-0.16-0.06-0.24-0.09c-3.84-1.48-6.41-3.47-6.41-3.47s1.98,2.57,5.31,4.99
		c0.31,0.22,0.62,0.43,0.95,0.62c-0.14,2.17,0.82,4.26,5.15,4.88c0.73,0.11,1.48,0.1,2.24,0.02c-0.01-0.02,0.04-0.02,0.04-0.04
		c0-0.01,0.04-0.05,0.04-0.05"/>
	<path fill="#9F2254" d="M347.06,53.12c3.84,0.62,9.53,0.52,15.44-2.25c0.14-0.07,0.3,0.11,0.44,0.04c0,0-4.04,4.12-8.86,6.45
		c-0.14,0.07-0.28,0.14-0.42,0.21c-0.47,0.21-0.94,0.4-1.42,0.57c-0.93,0.33-1.88,0.59-2.82,0.71c-0.04,0-0.09,0.01-0.13,0.02
		c-0.01-0.02-0.01-0.04-0.02-0.05l-0.01-0.02c0,0-0.3-0.24-0.69-0.68c-0.18-0.21-0.35-0.42-0.5-0.65c-0.22-0.31-0.4-0.64-0.56-0.99
		c-0.13-0.29-0.25-0.59-0.33-0.9c-0.17-0.58-0.24-1.18-0.22-1.78c0.01-0.22,0.03-0.44,0.06-0.66L347.06,53.12"/>
	<path fill="#FCB03F" d="M344.31,48.74c0.51-0.51,1.02-1.03,1.52-1.54c0.28-0.29,0.56-0.58,0.83-0.88c1.97-2.14,3.42-4.15,4.3-6.73
		c0.02-0.06,0.04-0.14,0.06-0.23l0.01-0.04c0.02-0.1,0.04-0.2,0.06-0.32c0.01-0.08,0.27-0.25,0.28-0.33
		c-0.22-1.12-0.72-2.31-1.27-3.21c0,0,0,0.01,0,0.01l-0.01-0.01c-0.07-0.07-0.15-0.13-0.22-0.2c-0.22-0.21-0.45-0.4-0.68-0.6
		c-0.69-0.58-1.41-1.11-2.18-1.58c0.04,0.63,0.06,1.26,0.07,1.89c0,0.07,0,0.14,0,0.21c0,0.24,0,0.49,0,0.73
		c-0.01,0.31-0.02,0.63-0.03,0.94c-0.01,0.23-0.03,0.46-0.04,0.7c0,0.02,0,0.05-0.01,0.07c-0.07,0.88-0.18,1.75-0.34,2.62
		l-0.28,1.31c-0.58,2.35-1.76,4.48-2.72,6.68c-0.26,0.58-0.5,1.17-0.71,1.78l-0.06,0.17c0.25-0.27,0.51-0.53,0.77-0.79
		C343.88,49.17,344.1,48.95,344.31,48.74"/>
	<path fill="#525353" d="M331.61,61.38c1.41-0.62,2.71-1.01,4.26-1.32c-0.01-0.34-0.03-0.67-0.05-1c0.66-1.71,1.27-3.45,1.83-5.2
		c-0.99,0.1-1.97,0.25-2.94,0.46c-0.72,0.15-1.43,0.34-2.13,0.56c-0.57,0.17-1.12,0.37-1.68,0.57l2.19,0.53l-1.76,5.52L331.61,61.38
		"/>
	<path fill="#DF0067" d="M358.65,45.01c-0.38-0.5-0.77-1.01-1.16-1.51l-0.06-0.08c-0.42-0.53-0.84-1.06-1.27-1.58
		c-0.44-0.53-0.88-1.06-1.33-1.58c-0.03-0.03-0.06-0.07-0.08-0.1c-0.37-0.43-0.75-0.85-1.13-1.26c-0.23-0.25-0.47-0.51-0.71-0.75
		c-0.19-0.19-0.37-0.39-0.56-0.58c-0.18-0.18-0.35-0.36-0.53-0.54c-0.39-0.38-0.78-0.75-1.18-1.12c-0.18-0.16-0.36-0.32-0.54-0.48
		c0,0,0,0,0,0.01c0.38,1.09,0.81,2.2,1.03,3.34c0.06,0.3,0.1,0.58,0.14,0.87c0.53,3.94-0.73,6.52-2.74,9.91
		c-0.15,0.25-0.29,0.49-0.44,0.74c-0.46,0.77-0.75,1.49-0.92,2.17c-0.06,0.22-0.1,0.44-0.13,0.67c3.94,0.63,9.85,0.75,15.91-2.22
		c0,0-1.19-1.75-2.97-4.14c-0.4-0.54-0.8-1.07-1.21-1.61C358.72,45.11,358.68,45.06,358.65,45.01"/>
	<path fill="#AA9678" d="M331.12,62.48l1.97-6.51l-2.19-0.53c-0.49,0.18-0.97,0.38-1.45,0.59l-1.95,6.45l2.18,0.03L331.12,62.48"/>
	<path fill="#FFFFFF" d="M332.5,59.67c0.19,0.07,0.39,0.14,0.58,0.21c2.23,0.78,4.58,1.18,6.95,1.18c2.69,0,5.36-0.52,7.86-1.52
		c0.13-0.05,0.25-0.11,0.38-0.16c0.21-0.09,0.41-0.18,0.61-0.27c0.18-0.08,0.36-0.17,0.54-0.26c-0.04,0-0.09,0.01-0.13,0.02
		c-0.75,0.08-1.5,0.09-2.24-0.02c-4.33-0.62-5.29-2.71-5.15-4.88c-0.33-0.19-0.65-0.39-0.95-0.62c-3.33-2.42-5.31-4.99-5.31-4.99
		s2.57,1.98,6.41,3.47c0.08,0.03,0.16,0.06,0.24,0.09c0.18-0.62,0.39-1.21,0.58-1.73l0.06-0.17c0.21-0.6,0.46-1.19,0.71-1.78
		c0.97-2.2,2.15-4.33,2.72-6.68l0.28-1.31h-2.37l0,0v0.01h0c0,0.01,0,0.01,0,0.02c0,0.56-0.17,1.11-0.48,1.58
		c-0.31,0.46-0.74,0.81-1.24,1.02c-0.44,0.19-0.92,0.26-1.39,0.21c-0.02,0-0.04-0.01-0.07-0.01c-0.07-0.01-0.15-0.02-0.22-0.03
		c-0.02-0.01-0.04-0.01-0.06-0.02c-0.07-0.02-0.15-0.04-0.22-0.06c-0.01,0-0.03-0.01-0.04-0.01c-0.08-0.03-0.15-0.05-0.23-0.09
		c-0.01,0-0.01-0.01-0.02-0.01c-0.08-0.04-0.16-0.07-0.23-0.12l0,0c-0.24-0.14-0.46-0.31-0.66-0.51l-8.11-1.98h-8.85
		c-0.04,0.07-0.08,0.13-0.12,0.2c-0.07,0.12-0.13,0.25-0.2,0.37c-0.22,0.41-0.42,0.83-0.61,1.25c-0.18,0.4-0.35,0.8-0.5,1.2
		l-0.02,0.05c-0.4,1.06-0.72,2.15-0.96,3.25c1.39,4.25,4.11,7.9,7.65,10.48c0.1,0.07,0.21,0.14,0.32,0.21
		c0.6,0.42,1.22,0.81,1.86,1.17C330.72,58.91,331.6,59.32,332.5,59.67"/>
	<path fill="#8B7460" d="M353.73,64.7c-0.06-0.56-0.09-1.13-0.09-1.69c0-0.34-0.28-0.62-0.62-0.62h-26.04
		c-0.34,0-0.62,0.28-0.62,0.62c0,0.57-0.03,1.13-0.09,1.69c-0.06,0.61-0.16,1.22-0.28,1.83c0.38,0.2,0.76,0.39,1.14,0.58
		c0.26-1.13,0.41-2.28,0.45-3.44c0-0.01,0-0.03,0-0.04h24.82c0,0.01,0,0.03,0,0.04c0.04,1.16,0.19,2.31,0.45,3.44
		c0.38-0.18,0.77-0.38,1.14-0.58C353.88,65.92,353.79,65.31,353.73,64.7"/>
</g>
</svg>
