<?xml version="1.0" encoding="utf-8"?>
<!-- Generator: Adobe Illustrator 16.0.0, SVG Export Plug-In . SVG Version: 6.00 Build 0)  -->
<!DOCTYPE svg PUBLIC "-//W3C//DTD SVG 1.1//EN" "http://www.w3.org/Graphics/SVG/1.1/DTD/svg11.dtd">
<svg version="1.1" id="Capa_1" xmlns="http://www.w3.org/2000/svg" xmlns:xlink="http://www.w3.org/1999/xlink" x="0px" y="0px"
	 width="80px" height="80px" viewBox="0 0 80 80" enable-background="new 0 0 80 80" xml:space="preserve">
<path fill="#FFFFFF" d="M40,70C23.38,70,9.88,56.75,10,40s12.75-30,30-30c17.25,0,30,13.5,30,30S56.62,70,40,70z M48.88,65.38
	l-8.5-22.88l-8,23.38C38.25,67.25,42.25,67.62,48.88,65.38L48.88,65.38z M28.13,64.13L15.38,29.25C13.63,33,13.25,36.12,13,40
	C13.13,50.25,18.88,59.62,28.13,64.13z M66.88,40C67,33.38,64,28.12,63.75,27.38C64,32.5,63.25,35.12,62.38,38l-8.75,25.13
	C64.63,56.5,66.75,46.62,67,40H66.88z M39.13,38.88l-4.25-11.62L31.75,27c-1.25-0.88-0.5-2.25,0.38-2.25
	c5.62,0.38,8.75,0.38,14.38,0c1.38,0,1.75,2,0.12,2.25l-3,0.25L53.37,56L58,40.25c0.25-6.87-1.63-7.62-4.12-12.62
	c-2-3.88,0.12-7.62,4-7.75c-3.13-3-9.5-6.75-17.88-6.88c-8.38-0.12-17.25,4.13-22.5,12.13l9.25-0.25c1.12,0.5,0.62,2.12,0,2.25
	l-3.25,0.25l9.75,29.25L39.13,38.88L39.13,38.88z"/>
</svg>
