<svg xmlns="http://www.w3.org/2000/svg" width="80" height="80" viewBox="0 0 80 80"><path fill="#A5DBE8" d="M29.45 56.03c.48-.21.96-.41 1.45-.59.55-.21 1.11-.4 1.68-.57.7-.21 1.41-.4 2.13-.56.97-.21 1.95-.36 2.94-.46-.56 1.75-1.17 3.48-1.83 5.2.03.33.04.67.05 1 1.36-.27 2.74-.41 4.13-.41 1.41 0 2.79.14 4.13.41.01-.34.03-.67.05-1-.66-1.71-1.27-3.45-1.83-5.2.99.1 1.97.25 2.94.46.72.15 1.43.34 2.13.56.57.17 1.12.37 1.68.57.49.18.98.38 1.46.59 3.46 1.54 6.55 3.82 9.04 6.67 6.36-5.49 10.4-13.62 10.4-22.7 0-16.57-13.43-30-30-30s-30 13.43-30 30c0 9.08 4.04 17.21 10.41 22.71 2.49-2.86 5.58-5.13 9.04-6.68"/><path fill="#525353" d="M50.55 56.04l1.86 6.4.53.02c.34 0 .58.09.58.43 0 .57.03 1.21.08 1.77.46.4 1.03.84 1.46 1.27 1.6-.93 3.12-2.01 4.52-3.23-2.48-2.85-5.56-5.12-9.03-6.66m-3.64-.07l2.19-.53c-.55-.21-1.11-.4-1.68-.57-.7-.21-1.41-.4-2.13-.56-.97-.21-1.95-.36-2.94-.46.56 1.75 1.17 3.48 1.83 5.2-.03.33-.04.67-.05 1 1.55.31 3.07.84 4.48 1.46l-1.7-5.54"/><path d="M24.93 65.94c.35.2.7.4 1.06.59.12-.6.33-1.43.39-2.05-.47.39-1.02 1.02-1.45 1.46m23.65-4.48c-1.42-.63-2.92-1.1-4.45-1.4-1.36-.27-2.74-.41-4.13-.41-1.41 0-2.79.14-4.13.41-1.55.3-3.17.77-4.57 1.39l-.15.93h17.71l-.28-.92"/><path fill="#525353" d="M26.32 64.65c.05-.56.09-1.06.09-1.63 0-.34.24-.56.58-.56l.56-.02 1.89-6.41c-3.46 1.54-6.55 3.82-9.04 6.67 1.4 1.21 2.92 2.29 4.52 3.23.43-.43.88-.85 1.34-1.24"/><path d="M53.84 65.79c.12.61.15.73.17.73.36-.19.71-.39 1.06-.59-.43-.44-.88-.85-1.35-1.25l.12 1.11"/><path fill="#AA9678" d="M48.58 61.46l.28.92h3.62l-1.92-6.35c-.48-.21-.96-.41-1.46-.59l-2.19.53 1.67 5.49"/><path fill="#C4B6A1" d="M27.59 63.67l.06-.04h-.05l-.01.04"/><path fill="#AA9678" d="M52.41 63.62h-.05l.06.04-.01-.04M52.35 63.53l-12.37.01.02 6.46c4.61 0 8.97-1.04 12.87-2.89-.25-1.12-.28-2.32-.32-3.5l-.2-.08"/><path fill="#C4B6A1" d="M39.98 63.57s-12.44-.02-12.46 0c-.04 1.17-.28 2.56-.39 3.54 3.9 1.85 8.26 2.89 12.87 2.89l.01-6.41-.03-.02"/><path fill="#786453" d="M40 63v.62-.62z"/><path fill="#525353" d="M48.59 58.1"/><path fill="#AA9678" d="M49.28 58.79l.01.02-.01-.02s-.3-.24-.69-.68c.39.44.69.68.69.68"/><path fill="#fff" d="M58.45 31.64m1.2 8.64"/><path fill="#BBBCBD" d="M59.65 40.27"/><path fill="#676A6A" d="M59.62 39.81v.03l.02.36v.16l-.02.35v.05l-.07.36v-.01l.79-.82-.79-.83.07.35"/><path d="M59.62 40.74l.01-.04.02-.35v-.15000000000000002l-.02-.36-.01-.04-.07-.36-.04-.12c-.07-.23-.17-.44-.28-.62l-.14-.19-.16-.14-.06-.04-.21-.1-.22-.04-.21.04-.21.1-.06.04c-.1.08-.18.17-.25.27l-.05.07c-.11.17-.21.38-.28.62l-.01.03-.08.34-.02.11c-.02.13-.03.27-.03.41v.06c0 1.14.54 2.07 1.21 2.07.12 0 .23-.03.33-.08l.18-.11.07-.06.15-.17.1-.14.05-.1.09-.2.03-.07.1-.3.07-.38zm-1.13-.74c-.25 0-.45-.35-.45-.78 0-.43.2-.78.45-.78s.45.35.45.78c0 .43-.2.78-.45.78z"/><path fill="#fff" d="M58.49 38.45c-.25 0-.45.35-.45.78 0 .43.2.78.45.78s.45-.35.45-.78c0-.44-.2-.78-.45-.78"/><path fill="#909393" d="M57.38 39.33c.07-.23.17-.44.28-.62l.05-.07c.07-.1.15-.19.25-.27l.06-.04.21-.1.21-.04.22.04.21.1.06.04.16.14.14.19c.11.17.21.38.28.62l-1.07-4.89-1.06 4.9"/><path d="M44.29 40.23l-.02-.29-.05-.28v-.01l-.07-.27v-.01l-.1-.25c-.3-.66-.84-1.19-1.51-1.46h-.01c-.16-.07-.33-.12-.51-.15h-.01c-.18-.04-.36-.05-.54-.05-.18 0-.36.02-.53.05h-.02c-.17.03-.34.08-.5.15h-.01c-.16.07-.31.15-.46.24-.15.09-.28.2-.41.32v.01h-.01c-.2.19-.38.41-.51.66v.01l-.12.23-.01.03-.08.22-.02.04-.06.22-.02.06-.03.22-.01.07c-.03.28-.02.56.04.84v.01c.04.18.09.35.15.51v.01c.13.33.33.62.58.88.19.2.41.37.66.51l.23.12.02.01.23.09.04.01.22.06.06.02.22.03.07.01c.66.07 1.32-.1 1.87-.47.3-.2.56-.46.76-.76.31-.47.48-1.02.48-1.58v-.02l-.01-.04zm-2.83-.34c-.59 0-1.06-.47-1.06-1.06 0-.59.48-1.06 1.06-1.06s1.06.48 1.06 1.06-.47 1.07-1.06 1.06z"/><path fill="#fff" d="M41.46 37.77c-.59 0-1.06.47-1.06 1.06 0 .59.47 1.06 1.06 1.06.59 0 1.06-.47 1.06-1.06.01-.58-.47-1.06-1.06-1.06"/><path fill="#BBBCBD" d="M39.52 38.22l.01-.01 1.95-5.95v-1.41c-1.1-.23-2.22-.34-3.34-.35-.38 0-.76.02-1.13.04l-.16.01c-1.95.15-3.88.66-5.66 1.47-1.53.7-2.95 1.62-4.22 2.71-.34.29-.67.6-.99.91l-.18.18c-.3.3-.59.62-.88.94l-.18.21c-.29.33-.56.68-.82 1.03l-.06.09c-.25.34-.49.69-.72 1.04l-.13.21c-.19.29-.36.6-.53.9h8.87l8.17-2.02"/><path fill="#E3DDDB" d="M47.01 37.55l.04-.7c.02-.31.03-.63.03-.94v-.94c-.01-.63-.03-1.26-.07-1.89l-.7-.4-.02-.01-.18-.1-.13-.07-.02-.01-.09-.05c-.41-.21-.82-.41-1.25-.59-1.01-.43-2.37-.8-3.13-.98v1.41l1.93 5.96v.01c.2.19.37.41.51.65l.12.24.1.25v.01l.07.27v.01l.05.28.02.29.01.02h2.36c.16-.87.27-1.74.34-2.62l.01-.1"/><path fill="#FCB03F" d="M50.1 35.44"/><path fill="#909393" d="M39.53 38.21c.13-.12.26-.23.41-.32.15-.09.3-.17.46-.24h.01c.16-.07.33-.12.5-.15h.02c.18-.03.35-.05.53-.05.18 0 .37.02.54.05h.01c.18.04.35.09.51.16.33.13.62.33.88.57v-.01l-1.93-5.96-1.94 5.95"/><path fill="#676A6A" d="M38.85 41.33c-.07-.16-.12-.33-.15-.51v-.01c-.06-.28-.07-.56-.04-.84l.01-.07.03-.22.02-.06.06-.22.02-.04.08-.22.01-.03.12-.23v-.01c.14-.24.31-.46.51-.66l-8.19 2.02h-.02l8.11 1.98c-.24-.24-.43-.54-.57-.88"/><path fill="#E3DDDB" d="M57.27 39.8l.02-.11.08-.34.01-.04 1.07-4.89v-2.79c-.87-.72-1.81-1.12-2.78-1.12-1.23 0-2.38.68-3.23 1.52-.94.92-1.66 2.07-2.25 3.24l-.08.16.54.48c.4.37.79.74 1.18 1.12l.53.54c.19.19.38.38.56.58.34.35.67.71 1 1.08.28.31.56.62.84.94l.09.1h2.41v-.06c-.01-.14 0-.28.01-.41m-7.17-4.35v.01-.01"/><path fill="#525353" d="M21.01 43.32l.02-.05c.32-.84.7-1.66 1.12-2.45l.2-.37.12-.2c.17-.3.34-.6.53-.9l.13-.21c.23-.36.47-.7.72-1.04l.06-.09c.26-.35.54-.69.82-1.03l.18-.21c.28-.32.57-.64.88-.94l.18-.18c.32-.32.65-.62.99-.91 1.35-4.51 5.7-7.29 10.58-7.29 1.96 0 3.92.57 5.59 1.59 1.72 1.05 2.89 2.08 3.8 3.87l.01.03.07.13c.76.47 1.49 1 2.18 1.58.23.19.46.39.68.6l.22.2v-.02l.07-.15c.69-4.34 2.87-6.71 5.13-6.71 1.7 0 2.94 1.02 3.87 3.75l.01.03c.28.3.53.62.77.95l.01.02.04.12-.04-.14c-2.78-8.31-10.65-14.3-19.91-14.3-11.62 0-21.04 9.42-21.04 21.04 0 2.29.37 4.5 1.05 6.55v-.01c.24-1.11.56-2.2.96-3.26"/><path fill="#fff" d="M60.29 40.27l-.73.82-.1.31-.03.07-.09.2-.05.1-.1.14-.15.17-.07.06-.18.11c-.1.05-.21.08-.33.08-.67 0-1.21-.93-1.21-2.07h-2.42c.46.53.9 1.06 1.34 1.6l1.26 1.56.06.08c.39.5.78 1 1.16 1.51l.11.15 1.22 1.62c.71-2.1 1.08-4.3 1.1-6.51l-.68-.03-.11.03"/><path d="M36.84 30.55l.16-.01c.38-.03.76-.04 1.13-.04 1.14 0 2.26.12 3.34.35.76.18 2.12.55 3.13.98.42.18.84.38 1.25.59l.09.05.02.01.13.07.18.1.02.01.66.37.03.02.02.01-.07-.13-.01-.03c-.91-1.79-2.31-3.33-4.03-4.38-1.67-1.02-3.63-1.59-5.59-1.59-4.88 0-9 3.29-10.35 7.8 1.28-1.09 2.7-2.01 4.22-2.71 1.79-.81 3.72-1.32 5.67-1.47"/><path fill="#BBBCBD" d="M59.97 33.32l-.01-.02c-.24-.33-.49-.65-.77-.95l-.01-.01-.36-.37-.14-.12-.23-.21v2.79l1.07 4.89.04.11.74.83.01-.01h.77v-.21c0-2.24-.36-4.47-1.07-6.6l-.04-.12"/><path d="M52.43 32.04c.86-.84 2-1.52 3.23-1.52.97 0 1.91.4 2.78 1.12v.01l.23.21.14.12.36.37.01.01-.01-.03c-.93-2.73-2.44-4.51-4.14-4.51-2.26 0-4.17 3.13-4.86 7.47l.01-.01c.59-1.17 1.31-2.32 2.25-3.24m-3.05 26.67s-.3-.24-.69-.69c-.18-.21-.35-.42-.5-.65l-.15-.22c-.15-.23-.26-.51-.39-.79-.15-.32-.15-.54-.23-.84-.06-.22-.11-.44-.15-.67-.06-.37-.08-.74-.07-1.11.01-.21.03-.44.06-.66l.13-.67c.17-.68.46-1.41.92-2.17l.12-.24.33-.48c2.01-3.39 3.09-5.95 2.56-9.89-.06-.4-.12-.81-.2-1.21l-.15.87-.1.25c-.87 2.58-2.24 4.48-4.22 6.62-.28.3-.55.59-.84.88-.5.52-1.01 1.04-1.52 1.54l-.65.65c-.2.2-.46.63-.76.95-.19.52-.4 1.11-.58 1.73l-.24-.09c-3.84-1.48-6.41-3.47-6.41-3.47s1.98 2.57 5.31 4.99c.31.22.62.43.95.62-.14 2.17.82 4.26 5.15 4.88.73.11 1.48.1 2.24.02l.04-.04.04-.05"/><path fill="#9F2254" d="M47.06 53.12c3.84.62 9.53.52 15.44-2.25l.44.04s-4.04 4.12-8.86 6.45l-.42.21c-.47.21-.94.4-1.42.57-.93.33-1.88.59-2.82.71l-.13.02-.02-.05-.01-.02s-.3-.24-.69-.68c-.18-.21-.35-.42-.5-.65-.22-.31-.4-.64-.56-.99-.13-.29-.25-.59-.33-.9-.17-.58-.24-1.18-.22-1.78.01-.22.03-.44.06-.66l.04-.02"/><path fill="#FCB03F" d="M44.31 48.74c.51-.51 1.02-1.03 1.52-1.54.28-.29.56-.58.83-.88 1.97-2.14 3.42-4.15 4.3-6.73l.06-.23.01-.04.06-.32.28-.33c-.22-1.12-.72-2.31-1.27-3.21v.01l-.01-.01-.22-.2c-.22-.21-.45-.4-.68-.6-.69-.58-1.41-1.11-2.18-1.58.04.63.06 1.26.07 1.89v.94l-.03.94-.04.7-.01.07c-.07.88-.18 1.75-.34 2.62l-.28 1.31c-.58 2.35-1.76 4.48-2.72 6.68-.26.58-.5 1.17-.71 1.78l-.06.17c.25-.27.51-.53.77-.79l.65-.65"/><path fill="#525353" d="M31.61 61.38c1.41-.62 2.71-1.01 4.26-1.32-.01-.34-.03-.67-.05-1 .66-1.71 1.27-3.45 1.83-5.2-.99.1-1.97.25-2.94.46-.72.15-1.43.34-2.13.56-.57.17-1.12.37-1.68.57l2.19.53-1.76 5.52.28-.12"/><path fill="#DF0067" d="M58.65 45.01c-.38-.5-.77-1.01-1.16-1.51l-.06-.08c-.42-.53-.84-1.06-1.27-1.58-.44-.53-.88-1.06-1.33-1.58l-.08-.1c-.37-.43-.75-.85-1.13-1.26-.23-.25-.47-.51-.71-.75l-.56-.58-.53-.54c-.39-.38-.78-.75-1.18-1.12l-.54-.48v.01c.38 1.09.81 2.2 1.03 3.34.06.3.1.58.14.87.53 3.94-.73 6.52-2.74 9.91l-.44.74c-.46.77-.75 1.49-.92 2.17-.06.22-.1.44-.13.67 3.94.63 9.85.75 15.91-2.22 0 0-1.19-1.75-2.97-4.14-.4-.54-.8-1.07-1.21-1.61l-.12-.16"/><path fill="#AA9678" d="M31.12 62.48l1.97-6.51-2.19-.53c-.49.18-.97.38-1.45.59l-1.95 6.45 2.18.03 1.44-.03"/><path fill="#fff" d="M32.5 59.67l.58.21c2.23.78 4.58 1.18 6.95 1.18 2.69 0 5.36-.52 7.86-1.52l.38-.16.61-.27.54-.26-.13.02c-.75.08-1.5.09-2.24-.02-4.33-.62-5.29-2.71-5.15-4.88-.33-.19-.65-.39-.95-.62-3.33-2.42-5.31-4.99-5.31-4.99s2.57 1.98 6.41 3.47l.24.09c.18-.62.39-1.21.58-1.73l.06-.17c.21-.6.46-1.19.71-1.78.97-2.2 2.15-4.33 2.72-6.68l.28-1.31h-2.37v.03c0 .56-.17 1.11-.48 1.58-.31.46-.74.81-1.24 1.02-.44.19-.92.26-1.39.21l-.07-.01-.22-.03-.06-.02-.22-.06-.04-.01-.23-.09-.02-.01-.23-.12c-.24-.14-.46-.31-.66-.51l-8.11-1.98h-8.85l-.12.2-.2.37c-.22.41-.42.83-.61 1.25-.18.4-.35.8-.5 1.2l-.02.05c-.4 1.06-.72 2.15-.96 3.25 1.39 4.25 4.11 7.9 7.65 10.48l.32.21c.6.42 1.22.81 1.86 1.17.85.48 1.73.89 2.63 1.24"/><path fill="#8B7460" d="M53.73 64.7c-.06-.56-.09-1.13-.09-1.69 0-.34-.28-.62-.62-.62h-26.04c-.34 0-.62.28-.62.62 0 .57-.03 1.13-.09 1.69-.06.61-.16 1.22-.28 1.83.38.2.76.39 1.14.58.26-1.13.41-2.28.45-3.44v-.04h24.82v.04c.04 1.16.19 2.31.45 3.44.38-.18.77-.38 1.14-.58-.11-.61-.2-1.22-.26-1.83"/></svg>