<svg xmlns="http://www.w3.org/2000/svg" width="80" height="80" viewBox="0 0 80 80"><radialGradient id="a" cx="308.058" cy="-558.353" r="36.051" gradientTransform="matrix(1 0 0 -1 -266 -514)" gradientUnits="userSpaceOnUse"><stop offset="0" stop-color="#FAAF40"/><stop offset=".043" stop-color="#F9A538"/><stop offset=".112" stop-color="#F89D31"/><stop offset=".227" stop-color="#F89A2F"/><stop offset=".528" stop-color="#F7922D"/><stop offset="1" stop-color="#F37B28"/></radialGradient><path fill="url(#a)" d="M19.89 49.35v-6.66c0-1.4-.58-2.1-1.72-2.1-1.14 0-1.72.7-1.72 2.1v6.66h-3.42v-6.66c0-1.4-.55-2.1-1.69-2.1s-1.72.7-1.72 2.1v6.66h-3.41v-7.04c0-1.46.5-2.54 1.52-3.3.88-.67 2.11-.99 3.6-.99 1.55 0 2.66.38 3.39 1.17.61-.79 1.75-1.17 3.42-1.17 1.52 0 2.72.32 3.6.99 1.02.76 1.52 1.84 1.52 3.3v7.07h-3.36v-.03z"/><radialGradient id="b" cx="308.059" cy="-558.353" r="36.053" gradientTransform="matrix(1 0 0 -1 -266 -514)" gradientUnits="userSpaceOnUse"><stop offset="0" stop-color="#FAAF40"/><stop offset=".043" stop-color="#F9A538"/><stop offset=".112" stop-color="#F89D31"/><stop offset=".227" stop-color="#F89A2F"/><stop offset=".528" stop-color="#F7922D"/><stop offset="1" stop-color="#F37B28"/></radialGradient><path fill="url(#b)" d="M29.71 49.65c-1.72 0-3.13-.56-4.27-1.64-1.11-1.08-1.7-2.49-1.7-4.21 0-1.72.55-3.13 1.7-4.21 1.11-1.08 2.54-1.64 4.27-1.64s3.16.56 4.27 1.64c1.14 1.08 1.7 2.49 1.7 4.21 0 1.72-.56 3.13-1.7 4.21s-2.57 1.64-4.27 1.64zm0-8.98c-.82 0-1.46.32-1.9.94-.44.61-.67 1.34-.67 2.22 0 .85.2 1.58.61 2.16.47.67 1.11.99 1.93.99s1.46-.32 1.93-.99c.44-.58.64-1.31.64-2.16 0-.85-.21-1.58-.61-2.16-.44-.68-1.11-1-1.93-1z"/><radialGradient id="c" cx="308.06" cy="-558.353" r="36.052" gradientTransform="matrix(1 0 0 -1 -266 -514)" gradientUnits="userSpaceOnUse"><stop offset="0" stop-color="#FAAF40"/><stop offset=".043" stop-color="#F9A538"/><stop offset=".112" stop-color="#F89D31"/><stop offset=".227" stop-color="#F89A2F"/><stop offset=".528" stop-color="#F7922D"/><stop offset="1" stop-color="#F37B28"/></radialGradient><path fill="url(#c)" d="M41.99 49.65c-1.72 0-3.13-.56-4.27-1.64-1.11-1.08-1.7-2.49-1.7-4.21 0-1.72.56-3.13 1.7-4.21 1.11-1.08 2.54-1.64 4.27-1.64 1.73 0 3.16.56 4.27 1.64 1.14 1.08 1.7 2.49 1.7 4.21 0 1.72-.56 3.13-1.7 4.21s-2.58 1.64-4.27 1.64zm0-8.98c-.82 0-1.46.32-1.9.94-.44.61-.67 1.34-.67 2.22 0 .85.2 1.58.61 2.16.47.67 1.11.99 1.93.99s1.46-.32 1.93-.99c.44-.58.64-1.31.64-2.16 0-.85-.21-1.58-.61-2.16-.44-.68-1.11-1-1.93-1z"/><radialGradient id="d" cx="308.059" cy="-558.353" r="36.053" gradientTransform="matrix(1 0 0 -1 -266 -514)" gradientUnits="userSpaceOnUse"><stop offset="0" stop-color="#FAAF40"/><stop offset=".043" stop-color="#F9A538"/><stop offset=".112" stop-color="#F89D31"/><stop offset=".227" stop-color="#F89A2F"/><stop offset=".528" stop-color="#F7922D"/><stop offset="1" stop-color="#F37B28"/></radialGradient><path fill="url(#d)" d="M57.13 49.32v-1.11c-.29.41-.82.73-1.55.96-.64.23-1.26.32-1.84.32-1.61 0-2.92-.55-3.89-1.67-.99-1.11-1.46-2.48-1.46-4.12 0-1.61.47-2.98 1.43-4.06.96-1.08 2.25-1.64 3.83-1.64 1.81 0 2.95.5 3.48 1.46v-9.18h3.3v19.03h-3.3zm0-6.31c0-.61-.29-1.2-.88-1.75-.58-.55-1.17-.85-1.78-.85-.88 0-1.55.35-2.08 1.05-.44.62-.67 1.4-.67 2.31 0 .88.23 1.64.67 2.28.5.73 1.2 1.08 2.08 1.08.53 0 1.08-.23 1.72-.73.61-.5.94-.99.94-1.52v-1.87z"/><radialGradient id="e" cx="308.06" cy="-558.353" r="36.051" gradientTransform="matrix(1 0 0 -1 -266 -514)" gradientUnits="userSpaceOnUse"><stop offset="0" stop-color="#FAAF40"/><stop offset=".043" stop-color="#F9A538"/><stop offset=".112" stop-color="#F89D31"/><stop offset=".227" stop-color="#F89A2F"/><stop offset=".528" stop-color="#F7922D"/><stop offset="1" stop-color="#F37B28"/></radialGradient><path fill="url(#e)" d="M61.63 49.32v-19.03h3.39v19.03h-3.39z"/><radialGradient id="f" cx="308.057" cy="-558.354" r="36.054" gradientTransform="matrix(1 0 0 -1 -266 -514)" gradientUnits="userSpaceOnUse"><stop offset="0" stop-color="#FAAF40"/><stop offset=".043" stop-color="#F9A538"/><stop offset=".112" stop-color="#F89D31"/><stop offset=".227" stop-color="#F89A2F"/><stop offset=".528" stop-color="#F7922D"/><stop offset="1" stop-color="#F37B28"/></radialGradient><path fill="url(#f)" d="M69.08 44.82c.15.7.5 1.29 1.02 1.78.55.5 1.14.76 1.81.76.47 0 .96-.12 1.52-.35.67-.29.99-.61.99-.99l3.58-.03c-.5 1.2-1.37 2.13-2.57 2.78-1.14.61-2.37.94-3.74.94-1.72 0-3.19-.56-4.33-1.61-1.14-1.08-1.72-2.49-1.72-4.24 0-1.81.58-3.22 1.72-4.3 1.14-1.05 2.63-1.58 4.44-1.58 1.99 0 3.54.64 4.65 1.96 1.02 1.2 1.55 2.84 1.55 4.88h-8.92zm5.56-2.1c-.15-.73-.44-1.32-.91-1.78-.53-.5-1.14-.76-1.81-.76-.7 0-1.29.23-1.78.73-.47.5-.79 1.08-.96 1.81h5.46z"/><path fill="#58595B" d="M6.53 39.71l-.35 1.75c3.21 1.08 6.25.03 7.86-2.78-2.36-1.63-4.56.03-7.51 1.03"/><linearGradient id="g" gradientUnits="userSpaceOnUse" x1="272.209" y1="-553.608" x2="279.885" y2="-553.608" gradientTransform="matrix(1 0 0 -1 -266 -514)"><stop offset="0" stop-color="#929497"/><stop offset=".124" stop-color="#757578"/><stop offset=".279" stop-color="#575658"/><stop offset=".44" stop-color="#403E3F"/><stop offset=".609" stop-color="#302D2E"/><stop offset=".788" stop-color="#262223"/><stop offset="1" stop-color="#231F20"/></linearGradient><path fill="url(#g)" d="M6.53 39.27c-.12.67-.21 1.32-.32 1.99 3.07 1.05 6.08.15 7.69-2.6-2.05-2.37-4.33-.41-7.37.61"/><linearGradient id="h" gradientUnits="userSpaceOnUse" x1="273.682" y1="-551.047" x2="276.868" y2="-555.598" gradientTransform="matrix(1 0 0 -1 -266 -514)"><stop offset="0" stop-color="#231F20"/><stop offset="1" stop-color="#231F20" stop-opacity="0"/></linearGradient><path fill="url(#h)" d="M10.18 40.06c-1.4-.29-2.92.44-3.98 1.2-.67-4.91 2.37-4.79 6.34-3.57-.26 1.2-.7 2.81-1.46 3.77-.02-.64-.31-1.08-.9-1.4"/><linearGradient id="i" gradientUnits="userSpaceOnUse" x1="268" y1="-551.176" x2="282.031" y2="-551.176" gradientTransform="matrix(1 0 0 -1 -266 -514)"><stop offset="0" stop-color="#929497"/><stop offset=".124" stop-color="#757578"/><stop offset=".279" stop-color="#575658"/><stop offset=".44" stop-color="#403E3F"/><stop offset=".609" stop-color="#302D2E"/><stop offset=".788" stop-color="#262223"/><stop offset="1" stop-color="#231F20"/></linearGradient><path fill="url(#i)" d="M2 39.27c5.14-3.1 8.04-3.68 14.03-4.3-6.96 5.5-7.13 4.3-14.03 4.3"/><path stroke="#4A4A4C" stroke-width=".5" fill="none" d="M16.03 35l-5.52 4.01"/><path opacity=".23" fill="#231F20" enable-background="new" d="M9.45 37.14c.06.64-.08-.62 0 0"/><path stroke="#A8ABAD" stroke-width=".5" fill="none" d="M2 39.27l8.51-.26"/><path stroke="#F16922" stroke-width=".5" d="M8.93 37.19c-1.46.41-6.25 1.46-6.31 2.08-.15 1.14-.03 2.95-.03 2.95" fill="none"/><path fill="#F16922" d="M3.02 46.58c-.53-1.31-1.17-2.78-.41-4.59.5 1.69.41 2.98.41 4.59"/><ellipse transform="matrix(-.337 -.941 .941 -.337 -23.261 57.836)" fill="#6D6E70" cx="8.72" cy="37.1" rx=".12" ry=".23"/></svg>