<svg xmlns="http://www.w3.org/2000/svg" width="80" height="80" viewBox="0 0 80 80"><path fill="#9B5C8F" d="M15.57 22.5h48.84c3.09 0 5.59 2.45 5.59 5.48v18.27c0 3.03-2.5 5.48-5.59 5.48h-17.52l2.4 5.77-10.57-5.77h-23.13c-3.09 0-5.59-2.45-5.59-5.48v-18.27c-.02-3 2.48-5.48 5.57-5.48z"/><path fill="#fff" d="M13.42 27.5c.34-.46.85-.69 1.54-.74 1.24-.1 1.95.48 2.12 1.72.76 5 1.58 9.23 2.46 12.69l5.34-9.97c.49-.91 1.1-1.39 1.83-1.43 1.07-.07 1.73.6 2 2.01.61 3.18 1.39 5.88 2.32 8.17.63-6.07 1.71-10.45 3.22-13.15.37-.67.9-1 1.61-1.05.56-.05 1.07.12 1.54.48.46.36.71.81.76 1.36.02.43-.05.79-.24 1.15-.95 1.72-1.73 4.61-2.37 8.63-.61 3.9-.83 6.93-.68 9.11.05.6-.05 1.12-.29 1.58-.29.53-.73.81-1.29.86-.63.05-1.29-.24-1.93-.88-2.27-2.27-4.07-5.66-5.39-10.18-1.58 3.06-2.76 5.35-3.51 6.88-1.44 2.7-2.66 4.09-3.68 4.16-.66.05-1.22-.5-1.71-1.65-1.24-3.13-2.58-9.18-4.02-18.14-.12-.63.03-1.18.37-1.61zm52.41 3.75c-.88-1.51-2.17-2.41-3.9-2.77-.46-.1-.9-.14-1.32-.14-2.34 0-4.24 1.2-5.73 3.59-1.27 2.03-1.9 4.28-1.9 6.74 0 1.84.39 3.42 1.17 4.73.88 1.51 2.17 2.41 3.9 2.77.46.1.9.14 1.32.14 2.37 0 4.27-1.19 5.73-3.58 1.27-2.05 1.9-4.3 1.9-6.76.03-1.88-.39-3.43-1.17-4.72zm-3.07 6.62c-.34 1.58-.95 2.75-1.85 3.54-.71.62-1.37.88-1.98.76-.58-.12-1.07-.62-1.44-1.55-.29-.74-.44-1.48-.44-2.17 0-.6.05-1.2.17-1.75.22-.98.63-1.94 1.29-2.84.8-1.17 1.66-1.65 2.54-1.48.58.12 1.07.62 1.44 1.55.29.74.44 1.48.44 2.17 0 .62-.05 1.22-.17 1.77zm-12.2-6.62c-.88-1.51-2.2-2.41-3.9-2.77-.46-.1-.9-.14-1.32-.14-2.34 0-4.24 1.2-5.73 3.59-1.27 2.03-1.9 4.28-1.9 6.74 0 1.84.39 3.42 1.17 4.73.88 1.51 2.17 2.41 3.9 2.77.46.1.9.14 1.32.14 2.37 0 4.27-1.19 5.73-3.58 1.27-2.05 1.9-4.3 1.9-6.76 0-1.88-.39-3.43-1.17-4.72zm-3.1 6.62c-.34 1.58-.95 2.75-1.85 3.54-.71.62-1.37.88-1.98.76-.58-.12-1.07-.62-1.44-1.55-.29-.74-.44-1.48-.44-2.17 0-.6.05-1.2.17-1.75.22-.98.63-1.94 1.29-2.84.8-1.17 1.66-1.65 2.54-1.48.59.12 1.07.62 1.44 1.55.29.74.44 1.48.44 2.17.03.62-.04 1.22-.17 1.77z"/></svg>