<svg xmlns="http://www.w3.org/2000/svg" width="80" height="80" viewBox="0 0 80 80"><path fill="#fff" d="M40 70c-16.62 0-30.12-13.25-30-30s12.75-30 30-30 30 13.5 30 30-13.38 30-30 30zm8.88-4.62l-8.5-22.88-8 23.38c5.87 1.37 9.87 1.74 16.5-.5zm-20.75-1.25l-12.75-34.88c-1.75 3.75-2.13 6.87-2.38 10.75.13 10.25 5.88 19.62 15.13 24.13zm38.75-24.13c.12-6.62-2.88-11.88-3.13-12.62.25 5.12-.5 7.74-1.37 10.62l-8.75 25.13c11-6.63 13.12-16.51 13.37-23.13h-.12zm-27.75-1.12l-4.25-11.62-3.13-.26c-1.25-.88-.5-2.25.38-2.25 5.62.38 8.75.38 14.38 0 1.38 0 1.75 2 .12 2.25l-3 .25 9.74 28.75 4.63-15.75c.25-6.87-1.63-7.62-4.12-12.62-2-3.88.12-7.62 4-7.75-3.13-3-9.5-6.75-17.88-6.88-8.38-.12-17.25 4.13-22.5 12.13l9.25-.25c1.12.5.62 2.12 0 2.25l-3.25.25 9.75 29.25 5.88-17.75z"/></svg>