<?xml version="1.0" encoding="utf-8"?>
<!-- Generator: Adobe Illustrator 16.0.0, SVG Export Plug-In . SVG Version: 6.00 Build 0)  -->
<!DOCTYPE svg PUBLIC "-//W3C//DTD SVG 1.1//EN" "http://www.w3.org/Graphics/SVG/1.1/DTD/svg11.dtd">
<svg version="1.1" xmlns="http://www.w3.org/2000/svg" xmlns:xlink="http://www.w3.org/1999/xlink" x="0px" y="0px" width="50px"
	 height="50px" viewBox="0 0 50 50" enable-background="new 0 0 50 50" xml:space="preserve">
<g id="FONDOS" display="none">
	<rect x="-65" y="-75" display="inline" fill="#1A1A1A" width="50" height="50"/>
	<rect y="-75" display="inline" fill="#1A1A1A" width="50" height="50"/>
</g>
<g id="Capa_1">
	<g>
		<path fill="#E44D26" d="M-88.02-64.57l-3.09,34.71l-13.9,3.86l-13.87-3.86l-3.09-34.71H-88.02L-88.02-64.57z"/>
		<path fill="#F16529" d="M-105-28.95l11.23-3.12l2.64-29.66H-105V-28.95z"/>
		<path fill="#EBEBEB" d="M-111.01-53.21h6.01v-4.26h-10.66l0.1,1.14l1.04,11.73h9.51v-4.26h-5.62L-111.01-53.21z M-110.05-42.47
			h-4.27l0.6,6.68l8.71,2.42l0.02-0.01v-4.43l-0.02,0.01l-4.73-1.28L-110.05-42.47L-110.05-42.47z"/>
		<path d="M-118.82-74h2.16v2.14h1.98V-74h2.16v6.47h-2.16v-2.17h-1.98v2.17h-2.16V-74L-118.82-74z M-109.68-71.85h-1.9V-74h5.96
			v2.15h-1.9v4.33h-2.16L-109.68-71.85L-109.68-71.85L-109.68-71.85z M-104.67-74h2.25l1.39,2.27l1.38-2.27h2.25v6.47h-2.15v-3.21
			l-1.49,2.3h-0.04l-1.49-2.3v3.21h-2.11V-74z M-96.32-74h2.16v4.33h3.04v2.14h-5.2V-74L-96.32-74z"/>
		<path fill="#FFFFFF" d="M-105.01-44.6h5.23l-0.49,5.52l-4.74,1.28v4.43l8.71-2.42l0.06-0.72l1-11.21l0.1-1.14h-9.88V-44.6
			L-105.01-44.6z M-105.01-53.22v0.01h10.27l0.08-0.96l0.19-2.16l0.1-1.14h-10.65V-53.22L-105.01-53.22z"/>
	</g>
	<path fill="#E44D26" d="M-23.02-64.9l-3.09,34.71l-13.9,3.86l-13.87-3.86l-3.09-34.71H-23.02L-23.02-64.9z"/>
	<path fill="#F16529" d="M-40-29.28l11.23-3.12l2.64-29.66H-40V-29.28z"/>
	<path fill="#EBEBEB" d="M-46.01-53.55H-40v-4.26h-10.66l0.1,1.14l1.04,11.73H-40v-4.26h-5.62L-46.01-53.55z M-45.05-42.8h-4.27
		l0.6,6.68l8.71,2.42L-40-33.7v-4.43l-0.02,0.01l-4.73-1.28L-45.05-42.8L-45.05-42.8z"/>
	<path fill="#FFFFFF" d="M-53.82-74.33h2.16v2.14h1.98v-2.14h2.16v6.47h-2.16v-2.17h-1.98v2.17h-2.16V-74.33L-53.82-74.33z
		 M-44.68-72.19h-1.9v-2.15h5.96v2.15h-1.9v4.33h-2.16L-44.68-72.19L-44.68-72.19L-44.68-72.19z M-39.67-74.33h2.25l1.39,2.27
		l1.38-2.27h2.25v6.47h-2.15v-3.21l-1.49,2.3h-0.04l-1.49-2.3v3.21h-2.11V-74.33z M-31.32-74.33h2.16V-70h3.04v2.14h-5.2V-74.33
		L-31.32-74.33z"/>
	<path fill="#FFFFFF" d="M-40.01-44.93h5.23l-0.49,5.52l-4.74,1.28v4.43l8.71-2.42l0.06-0.72l1-11.21l0.1-1.14h-9.88V-44.93
		L-40.01-44.93z M-40.01-53.56v0.01h10.27l0.08-0.96l0.19-2.16l0.1-1.14h-10.65V-53.56L-40.01-53.56z"/>
	<path fill="#1DBA7D" d="M41.98-64.57l-3.09,34.71L24.98-26l-13.87-3.86L8.02-64.57H41.98L41.98-64.57z"/>
	<path fill="#21D690" d="M25-28.95l11.23-3.12l2.64-29.66H25V-28.95z"/>
	<path fill="#EBEBEB" d="M18.99-53.21H25v-4.26H14.34l0.1,1.14l1.04,11.73H25v-4.26h-5.62L18.99-53.21z M19.95-42.47h-4.27l0.6,6.68
		l8.71,2.42L25-33.37v-4.43l-0.02,0.01l-4.73-1.28L19.95-42.47L19.95-42.47z"/>
	<path fill="#FFFFFF" d="M11.18-74h2.16v2.14h1.98V-74h2.16v6.47h-2.16v-2.17h-1.98v2.17h-2.16V-74L11.18-74z M20.32-71.85h-1.9V-74
		h5.96v2.15h-1.9v4.33h-2.16L20.32-71.85L20.32-71.85L20.32-71.85z M25.33-74h2.25l1.39,2.27L30.35-74h2.25v6.47h-2.15v-3.21
		l-1.49,2.3h-0.04l-1.49-2.3v3.21h-2.11V-74z M33.68-74h2.16v4.33h3.04v2.14h-5.2V-74L33.68-74z"/>
	<path fill="#FFFFFF" d="M24.99-44.6h5.23l-0.49,5.52l-4.74,1.28v4.43l8.71-2.42l0.06-0.72l1-11.21l0.1-1.14h-9.88V-44.6L24.99-44.6
		z M24.99-53.22v0.01h10.27l0.08-0.96l0.19-2.16l0.1-1.14H24.99V-53.22L24.99-53.22z"/>
	<rect y="-89" fill="#21D690" width="10" height="10"/>
	<rect x="10" y="-89" fill="#1DBA7D" width="10" height="10"/>
	<path fill="#2062AF" d="M-26.66,44.41L-40,48l-13.34-3.59l-3.08-33.35h32.84L-26.66,44.41z"/>
	<path fill="#3C9CD7" d="M-40,13.76v31.38l0.03,0.01l10.8-2.91l2.49-28.48H-40z"/>
	<path fill="#FFFFFF" d="M-47.57,6.16V4.17h2.9V2h-5.07v6.14h5.07V6.16H-47.57z M-39.46,4.17h2.02V2h-5.07v2.17
		c0.68,0.68,1.03,1,2.01,1.98h-2.01v1.98h5.07V6.16L-39.46,4.17z M-32.28,4.17h2.02V2h-5.07v2.17c0.68,0.68,1.03,1,2.01,1.98h-2.01
		v1.98h5.07V6.16L-32.28,4.17z M-40.01,22.1l-9.55,3.98l0.32,3.94l9.23-3.95l9.82-4.2l0.41-4.03L-40.01,22.1L-40.01,22.1z"/>
	
		<linearGradient id="SVGID_1_" gradientUnits="userSpaceOnUse" x1="-2072.082" y1="1582.5029" x2="-2072.082" y2="1584.207" gradientTransform="matrix(4.642 0 0 -4.642 9573.8193 7375.729)">
		<stop  offset="0.387" style="stop-color:#D1D3D4;stop-opacity:0"/>
		<stop  offset="1" style="stop-color:#D1D3D4"/>
	</linearGradient>
	<path fill="url(#SVGID_1_)" d="M-49.56,26.07l0.32,3.94l9.23-3.95V22.1L-49.56,26.07z"/>
	
		<linearGradient id="SVGID_2_" gradientUnits="userSpaceOnUse" x1="-2069.9517" y1="1583.3545" x2="-2069.9517" y2="1585.1279" gradientTransform="matrix(4.642 0 0 -4.642 9573.8193 7375.729)">
		<stop  offset="0.387" style="stop-color:#D1D3D4;stop-opacity:0"/>
		<stop  offset="1" style="stop-color:#D1D3D4"/>
	</linearGradient>
	<path fill="url(#SVGID_2_)" d="M-29.78,17.84l-10.23,4.26v3.97l9.82-4.2L-29.78,17.84z"/>
	
		<linearGradient id="SVGID_3_" gradientUnits="userSpaceOnUse" x1="-2073.1743" y1="1581.6855" x2="-2069.0791" y2="1581.6855" gradientTransform="matrix(4.642 0 0 -4.642 9573.8193 7375.729)">
		<stop  offset="0" style="stop-color:#E8E7E5"/>
		<stop  offset="1" style="stop-color:#FFFFFF"/>
	</linearGradient>
	<path fill="url(#SVGID_3_)" d="M-49.55,26.07l0.32,3.94l14.17,0.04l-0.32,5.25l-4.66,1.31l-4.48-1.13l-0.27-3.26h-4.16l0.54,6.29
		l8.41,2.5l8.37-2.44l1.09-12.49L-49.55,26.07L-49.55,26.07z"/>
	<path opacity="0.05" enable-background="new    " d="M-40.01,26.07h-9.55l0.32,3.94l9.23,0.03V26.07L-40.01,26.07z M-40.01,36.61
		l-0.05,0.01l-4.48-1.13l-0.27-3.26h-4.16l0.54,6.29l8.42,2.49V36.61z"/>
	
		<linearGradient id="SVGID_4_" gradientUnits="userSpaceOnUse" x1="-2073.3628" y1="1584.6348" x2="-2068.9165" y2="1584.6348" gradientTransform="matrix(4.642 0 0 -4.642 9573.8193 7375.729)">
		<stop  offset="0" style="stop-color:#E8E7E5"/>
		<stop  offset="1" style="stop-color:#FFFFFF"/>
	</linearGradient>
	<path fill="url(#SVGID_4_)" d="M-50.42,17.84h20.64l-0.41,4.03h-19.73L-50.42,17.84z"/>
	<path opacity="0.05" enable-background="new    " d="M-40.01,17.84h-10.41l0.5,4.03h9.91V17.84z"/>
	<g>
		<path fill="#F7DF1E" d="M7,7h36v36H7V7z"/>
		<path fill="#1A1A1A" d="M16.47,37.08l2.75-1.67c0.53,0.95,1.02,1.74,2.18,1.74c1.11,0,1.82-0.44,1.82-2.13v-11.5h3.38v11.55
			c0,3.51-2.05,5.09-5.05,5.09C18.83,40.17,17.27,38.77,16.47,37.08 M28.43,36.72l2.75-1.6c0.73,1.18,1.67,2.05,3.33,2.05
			c1.4,0,2.29-0.7,2.29-1.67c0-1.16-0.92-1.57-2.47-2.25L33.5,32.9c-2.44-1.04-4.06-2.35-4.06-5.09c0-2.54,1.93-4.47,4.95-4.47
			c2.15,0,3.69,0.75,4.81,2.71l-2.64,1.69c-0.58-1.04-1.2-1.45-2.17-1.45c-0.99,0-1.62,0.63-1.62,1.45c0,1.02,0.63,1.42,2.08,2.05
			l0.85,0.36c2.87,1.24,4.49,2.49,4.49,5.31c0,3.04-2.4,4.71-5.6,4.71C31.45,40.17,29.42,38.68,28.43,36.72"/>
	</g>
</g>
</svg>
