<svg xmlns="http://www.w3.org/2000/svg" width="50" height="50" viewBox="0 0 50 50"><g><path fill="#E44D26" d="M-23.02-64.57l-3.09 34.71-13.91 3.86-13.87-3.86-3.09-34.71h33.96z"/><path fill="#F16529" d="M-40-28.95l11.23-3.12 2.64-29.66h-13.87v32.78z"/><path fill="#EBEBEB" d="M-46.01-53.21h6.01v-4.26h-10.66l.1 1.14 1.04 11.73h9.52v-4.26h-5.62l-.39-4.35zm.96 10.74h-4.27l.6 6.68 8.71 2.42.02-.01v-4.43l-.02.01-4.73-1.28-.31-3.39z"/><path d="M-53.82-74h2.16v2.14h1.98v-2.14h2.16v6.47h-2.16v-2.17h-1.98v2.17h-2.16v-6.47zm9.14 2.15h-1.9v-2.15h5.96v2.15h-1.9v4.33h-2.16v-4.33zm5.01-2.15h2.25l1.39 2.27 1.38-2.27h2.25v6.47h-2.15v-3.21l-1.49 2.3h-.04l-1.49-2.3v3.21h-2.11v-6.47zm8.35 0h2.16v4.33h3.04v2.14h-5.2v-6.47z"/><path fill="#fff" d="M-40.01-44.6h5.23l-.49 5.52-4.74 1.28v4.43l8.71-2.42.06-.72 1-11.21.1-1.14h-9.88v4.26h.01zm0-8.62v.01h10.27l.08-.96.19-2.16.1-1.14h-10.65v4.25h.01z"/><path fill="#E44D26" d="M41.98-64.9l-3.09 34.71-13.9 3.86-13.87-3.86-3.1-34.71h33.96z"/><path fill="#F16529" d="M25-29.28l11.23-3.12 2.64-29.66h-13.87v32.78z"/><path fill="#EBEBEB" d="M18.99-53.55h6.01v-4.26h-10.66l.1 1.14 1.04 11.73h9.52v-4.26h-5.62l-.39-4.35zm.96 10.75h-4.27l.6 6.68 8.71 2.42h.01v-4.43l-.02.01-4.73-1.28-.3-3.4z"/><path fill="#fff" d="M11.18-74.33h2.16v2.14h1.98v-2.14h2.16v6.47h-2.16v-2.17h-1.98v2.17h-2.16v-6.47zm9.14 2.14h-1.9v-2.15h5.96v2.15h-1.9v4.33h-2.16v-4.33zm5.01-2.14h2.25l1.39 2.27 1.38-2.27h2.25v6.47h-2.15v-3.21l-1.49 2.3h-.04l-1.49-2.3v3.21h-2.11v-6.47zm8.35 0h2.16v4.33h3.04v2.14h-5.2v-6.47zM24.99-44.93h5.23l-.49 5.52-4.74 1.28v4.43l8.71-2.42.06-.72 1-11.21.1-1.14h-9.88v4.26h.01zm0-8.63v.01h10.27l.08-.96.19-2.16.1-1.14h-10.64v4.25z"/><path fill="#1DBA7D" d="M106.98-64.57l-3.09 34.71-13.91 3.86-13.87-3.86-3.09-34.71h33.96z"/><path fill="#21D690" d="M90-28.95l11.23-3.12 2.64-29.66h-13.87v32.78z"/><path fill="#EBEBEB" d="M83.99-53.21h6.01v-4.26h-10.66l.1 1.14 1.04 11.73h9.52v-4.26h-5.62l-.39-4.35zm.96 10.74h-4.27l.6 6.68 8.71 2.42h.01v-4.43l-.02.01-4.73-1.28-.3-3.4z"/><path fill="#fff" d="M76.18-74h2.16v2.14h1.98v-2.14h2.16v6.47h-2.16v-2.17h-1.98v2.17h-2.16v-6.47zm9.14 2.15h-1.9v-2.15h5.96v2.15h-1.9v4.33h-2.16v-4.33zm5.01-2.15h2.25l1.39 2.27 1.38-2.27h2.25v6.47h-2.15v-3.21l-1.49 2.3h-.04l-1.49-2.3v3.21h-2.11v-6.47zm8.35 0h2.16v4.33h3.04v2.14h-5.2v-6.47zM89.99-44.6h5.23l-.49 5.52-4.74 1.28v4.43l8.71-2.42.06-.72 1-11.21.1-1.14h-9.88v4.26h.01zm0-8.62v.01h10.27l.08-.96.19-2.16.1-1.14h-10.64v4.25z"/><path fill="#21D690" d="M65-89h10v10h-10z"/><path fill="#1DBA7D" d="M75-89h10v10h-10z"/><path fill="#2062AF" d="M38.34 44.41l-13.34 3.59-13.34-3.59-3.08-33.35h32.84l-3.08 33.35z"/><path fill="#3C9CD7" d="M25 13.76v31.38l.03.01 10.8-2.91 2.49-28.48h-13.32z"/><path fill="#fff" d="M17.43 6.16v-1.99h2.9v-2.17h-5.07v6.14h5.07v-1.98h-2.9zm8.11-1.99h2.02v-2.17h-5.07v2.17c.68.68 1.03 1 2.01 1.98h-2.01v1.98h5.07v-1.97l-2.02-1.99zm7.18 0h2.02v-2.17h-5.07v2.17c.68.68 1.03 1 2.01 1.98h-2.01v1.98h5.07v-1.97l-2.02-1.99zm-7.73 17.93l-9.55 3.98.32 3.94 9.23-3.95 9.82-4.2.41-4.03-10.23 4.26z"/><linearGradient id="a" gradientUnits="userSpaceOnUse" x1="-2007.082" y1="1582.503" x2="-2007.082" y2="1584.207" gradientTransform="matrix(4.642 0 0 -4.642 9337.09 7375.729)"><stop offset=".387" stop-color="#D1D3D4" stop-opacity="0"/><stop offset="1" stop-color="#D1D3D4"/></linearGradient><path fill="url(#a)" d="M15.44 26.07l.32 3.94 9.23-3.95v-3.96l-9.55 3.97z"/><linearGradient id="b" gradientUnits="userSpaceOnUse" x1="-2004.952" y1="1583.354" x2="-2004.952" y2="1585.128" gradientTransform="matrix(4.642 0 0 -4.642 9337.09 7375.729)"><stop offset=".387" stop-color="#D1D3D4" stop-opacity="0"/><stop offset="1" stop-color="#D1D3D4"/></linearGradient><path fill="url(#b)" d="M35.22 17.84l-10.23 4.26v3.97l9.82-4.2.41-4.03z"/><linearGradient id="c" gradientUnits="userSpaceOnUse" x1="-2008.174" y1="1581.686" x2="-2004.079" y2="1581.686" gradientTransform="matrix(4.642 0 0 -4.642 9337.09 7375.729)"><stop offset="0" stop-color="#E8E7E5"/><stop offset="1" stop-color="#fff"/></linearGradient><path fill="url(#c)" d="M15.45 26.07l.32 3.94 14.17.04-.32 5.25-4.66 1.31-4.48-1.13-.27-3.26h-4.16l.54 6.29 8.41 2.5 8.37-2.44 1.09-12.49-19.01-.01z"/><path opacity=".05" enable-background="new" d="M24.99 26.07h-9.55l.32 3.94 9.23.03v-3.97zm0 10.54l-.05.01-4.48-1.13-.27-3.26h-4.16l.54 6.29 8.42 2.49v-4.4z"/><linearGradient id="d" gradientUnits="userSpaceOnUse" x1="-2008.363" y1="1584.635" x2="-2003.917" y2="1584.635" gradientTransform="matrix(4.642 0 0 -4.642 9337.09 7375.729)"><stop offset="0" stop-color="#E8E7E5"/><stop offset="1" stop-color="#fff"/></linearGradient><path fill="url(#d)" d="M14.58 17.84h20.64l-.41 4.03h-19.73l-.5-4.03z"/><path opacity=".05" enable-background="new" d="M24.99 17.84h-10.41l.5 4.03h9.91v-4.03z"/></g></svg>