<svg xmlns="http://www.w3.org/2000/svg" width="50" height="50" viewBox="0 0 50 50"><g><path fill="#1DBA7D" d="M38.34 44.41l-13.34 3.59-13.34-3.59-3.08-33.35h32.84l-3.08 33.35z"/><path fill="#21D690" d="M25 13.76v31.38l.03.01 10.8-2.91 2.49-28.48h-13.32z"/><path fill="#fff" d="M17.43 6.16v-1.99h2.9v-2.17h-5.07v6.14h5.07v-1.98h-2.9zm8.11-1.99h2.02v-2.17h-5.07v2.17c.68.68 1.03 1 2.01 1.98h-2.01v1.98h5.07v-1.97l-2.02-1.99zm7.18 0h2.02v-2.17h-5.07v2.17c.68.68 1.03 1 2.01 1.98h-2.01v1.98h5.07v-1.97l-2.02-1.99zM24.99 22.1l-9.55 3.98.32 3.94 9.23-3.95 9.82-4.2.41-4.03-10.23 4.26z"/><linearGradient id="a" gradientUnits="userSpaceOnUse" x1="-1549.858" y1="-1323.979" x2="-1549.858" y2="-1325.684" gradientTransform="matrix(4.642 0 0 4.642 7214.348 6175.658)"><stop offset=".387" stop-color="#D1D3D4" stop-opacity="0"/><stop offset="1" stop-color="#D1D3D4"/></linearGradient><path fill="url(#a)" d="M15.44 26.07l.32 3.94 9.23-3.95v-3.96l-9.55 3.97z"/><linearGradient id="b" gradientUnits="userSpaceOnUse" x1="-1547.728" y1="-1324.83" x2="-1547.728" y2="-1326.602" gradientTransform="matrix(4.642 0 0 4.642 7214.348 6175.658)"><stop offset=".387" stop-color="#D1D3D4" stop-opacity="0"/><stop offset="1" stop-color="#D1D3D4"/></linearGradient><path fill="url(#b)" d="M35.22 17.84l-10.23 4.26v3.97l9.82-4.2.41-4.03z"/><linearGradient id="c" gradientUnits="userSpaceOnUse" x1="-1550.884" y1="-1323.219" x2="-1546.789" y2="-1323.219" gradientTransform="matrix(4.642 0 0 4.642 7214.348 6175.658)"><stop offset="0" stop-color="#E8E7E5"/><stop offset="1" stop-color="#fff"/></linearGradient><path fill="url(#c)" d="M15.45 26.07l.32 3.94 14.17.04-.32 5.25-4.66 1.31-4.48-1.13-.27-3.26h-4.16l.54 6.29 8.41 2.5 8.37-2.44 1.09-12.49h-19.01z"/><path opacity=".05" enable-background="new" d="M24.99 26.07h-9.55l.32 3.94 9.23.03v-3.97zm0 10.54l-.05.01-4.48-1.13-.27-3.26h-4.16l.54 6.29 8.42 2.49v-4.4z"/><linearGradient id="d" gradientUnits="userSpaceOnUse" x1="-1551.072" y1="-1326.168" x2="-1546.627" y2="-1326.168" gradientTransform="matrix(4.642 0 0 4.642 7214.348 6175.658)"><stop offset="0" stop-color="#E8E7E5"/><stop offset="1" stop-color="#fff"/></linearGradient><path fill="url(#d)" d="M14.58 17.84h20.64l-.41 4.03h-19.73l-.5-4.03z"/><path opacity=".05" enable-background="new" d="M24.99 17.84h-10.41l.5 4.03h9.91v-4.03z"/></g></svg>