<svg xmlns="http://www.w3.org/2000/svg" width="50" height="50" viewBox="0 0 50 50"><g><path fill="#E44D26" d="M41.98 10.43l-3.09 34.71-13.91 3.86-13.87-3.86-3.09-34.71h33.96z"/><path fill="#F16529" d="M25 46.05l11.23-3.12 2.64-29.66h-13.87v32.78z"/><path fill="#EBEBEB" d="M18.99 21.79h6.01v-4.26h-10.66l.1 1.14 1.04 11.73h9.52v-4.26h-5.62l-.39-4.35zm.96 10.74h-4.27l.6 6.68 8.71 2.42h.01v-4.43l-.02.01-4.73-1.28-.3-3.4z"/><path fill="#fff" d="M11.18 1h2.16v2.14h1.98v-2.14h2.16v6.47h-2.16v-2.16h-1.98v2.17h-2.16v-6.48zm9.14 2.15h-1.9v-2.15h5.96v2.15h-1.9v4.33h-2.16v-4.33zm5.01-2.15h2.25l1.39 2.27 1.38-2.27h2.25v6.47h-2.15v-3.21l-1.49 2.3h-.04l-1.49-2.3v3.21h-2.11v-6.47zm8.35 0h2.16v4.33h3.04v2.14h-5.2v-6.47zM24.99 30.4h5.23l-.49 5.52-4.74 1.28v4.43l8.71-2.42.06-.72 1-11.21.1-1.14h-9.88v4.26h.01zm0-8.62v.01h10.27l.08-.96.19-2.16.1-1.14h-10.64v4.25z"/></g></svg>