<svg xmlns="http://www.w3.org/2000/svg" width="50" height="50" viewBox="0 0 50 50"><path fill="#1DBA7D" d="M41.27 11.04l-2.97 33.26-13.32 3.7-13.29-3.7-2.96-33.26h32.54z"/><path fill="#21D690" d="M25 45.17l10.77-2.99 2.54-28.42h-13.31v31.41z"/><path fill="#EBEBEB" d="M19.24 21.92h5.76v-4.08h-10.21l.1 1.09 1 11.24h9.11v-4.07h-5.39l-.37-4.18zm.92 10.3h-4.09l.57 6.41 8.34 2.32.02-.01v-4.25l-.02.01-4.54-1.23-.28-3.25z"/><path fill="#fff" d="M11.76 2h2.07v2.05h1.89v-2.05h2.07v6.2h-2.07v-2.07h-1.89v2.07h-2.07v-6.2zm8.75 2.06h-1.82v-2.06h5.71v2.06h-1.82v4.14h-2.07v-4.14zm4.81-2.06h2.16l1.33 2.18 1.32-2.18h2.16v6.2h-2.06v-3.07l-1.43 2.2h-.04l-1.43-2.21v3.08h-2.02v-6.2zm8 0h2.07v4.15h2.91v2.05h-4.98v-6.2zm-8.33 28.18h5.01l-.47 5.29-4.54 1.23v4.25l8.35-2.32.06-.69.96-10.74.1-1.1h-9.47v4.08zm0-8.27l9.84.01.08-.92.19-2.07.1-1.09h-10.2v4.07h-.01z"/></svg>