<svg xmlns="http://www.w3.org/2000/svg" width="50" height="50" viewBox="0 0 50 50"><g><path fill="#F7DF1E" d="M2 2h46v46h-46v-46z"/><path fill="#1A1A1A" d="M14.1 40.44l3.52-2.13c.68 1.21 1.3 2.22 2.78 2.22 1.42 0 2.32-.56 2.32-2.72v-14.7h4.32v14.76c0 4.48-2.62 6.51-6.45 6.51-3.47.01-5.47-1.78-6.49-3.94m15.28-.46l3.52-2.04c.93 1.51 2.13 2.62 4.26 2.62 1.79 0 2.93-.9 2.93-2.13 0-1.48-1.17-2.01-3.15-2.87l-1.08-.46c-3.12-1.33-5.19-3-5.19-6.51 0-3.24 2.47-5.71 6.33-5.71 2.75 0 4.72.96 6.15 3.46l-3.37 2.16c-.74-1.33-1.54-1.85-2.78-1.85-1.27 0-2.07.8-2.07 1.85 0 1.3.8 1.82 2.66 2.62l1.08.46c3.67 1.58 5.74 3.18 5.74 6.79 0 3.89-3.06 6.02-7.16 6.02-4.01 0-6.6-1.91-7.87-4.41"/></g></svg>