<svg xmlns="http://www.w3.org/2000/svg" width="50" height="50" viewBox="0 0 50 50"><g><path fill="#F7DF1E" d="M7 7h36v36h-36v-36z"/><path fill="#1A1A1A" d="M16.47 37.08l2.75-1.67c.53.95 1.02 1.74 2.18 1.74 1.11 0 1.82-.44 1.82-2.13v-11.5h3.38v11.55c0 3.51-2.05 5.09-5.05 5.09-2.72.01-4.28-1.39-5.08-3.08m11.96-.36l2.75-1.6c.73 1.18 1.67 2.05 3.33 2.05 1.4 0 2.29-.7 2.29-1.67 0-1.16-.92-1.57-2.47-2.25l-.83-.35c-2.44-1.04-4.06-2.35-4.06-5.09 0-2.54 1.93-4.47 4.95-4.47 2.15 0 3.69.75 4.81 2.71l-2.64 1.69c-.58-1.04-1.2-1.45-2.17-1.45-.99 0-1.62.63-1.62 1.45 0 1.02.63 1.42 2.08 2.05l.85.36c2.87 1.24 4.49 2.49 4.49 5.31 0 3.04-2.4 4.71-5.6 4.71-3.14 0-5.17-1.49-6.16-3.45"/></g></svg>